STARTFONT 2.1
COMMENT
COMMENT Converted from OpenType font "whitrabt.ttf" by "otf2bdf 3.0".
COMMENT
FONT -FreeType-White Rabbit-Medium-R-Normal--89-640-100-100-P-369-ISO10646-1
SIZE 64 100 100
FONTBOUNDINGBOX 47 67 0 -8
STARTPROPERTIES 19
FOUNDRY "FreeType"
FAMILY_NAME "White Rabbit"
WEIGHT_NAME "Medium"
SLANT "R"
SETWIDTH_NAME "Normal"
ADD_STYLE_NAME ""
PIXEL_SIZE 89
POINT_SIZE 640
RESOLUTION_X 100
RESOLUTION_Y 100
SPACING "P"
AVERAGE_WIDTH 369
CHARSET_REGISTRY "ISO10646"
CHARSET_ENCODING "1"
FONT_ASCENT 59
FONT_DESCENT 8
COPYRIGHT "Copyright © 1999 by Matthew Welch. All Rights Reserved."
_OTF_FONTFILE "whitrabt.ttf"
_OTF_PSNAME "WhiteRabbit"
ENDPROPERTIES
CHARS 96
STARTCHAR 0020
ENCODING 32
SWIDTH 573 0
DWIDTH 51 0
BBX 0 0 0 0
BITMAP
ENDCHAR
STARTCHAR 0021
ENCODING 33
SWIDTH 573 0
DWIDTH 51 0
BBX 17 59 13 0
BITMAP
3FFE00
7FFF00
FFFF80
FFFF80
FFFF80
FFFF80
FFFF80
FFFF80
FFFF80
FFFF80
FFFF80
FFFF80
FFFF80
FFFF80
FFFF80
FFFF80
FFFF80
FFFF80
FFFF80
FFFF80
FFFF80
FFFF80
FFFF80
FFFF80
FFFF80
FFFF80
FFFF80
FFFF80
FFFF80
FFFF80
FFFF80
FFFF80
7FFF00
3FFE00
000000
000000
000000
000000
000000
000000
000000
000000
3FFE00
7FFF00
FFFF80
FFFF80
FFFF80
FFFF80
FFFF80
FFFF80
FFFF80
FFFF80
FFFF80
FFFF80
FFFF80
FFFF80
FFFF80
7FFF00
3FFE00
ENDCHAR
STARTCHAR 0022
ENCODING 34
SWIDTH 573 0
DWIDTH 51 0
BBX 25 17 13 42
BITMAP
3C001E00
7E003F00
FF007F80
FF007F80
FF007F80
FF007F80
FF007F80
FF007F80
FF007F80
FF007F80
FF007F80
FF007F80
FF007F80
FF007F80
FF007F80
7E003F00
3C001E00
ENDCHAR
STARTCHAR 0023
ENCODING 35
SWIDTH 562 0
DWIDTH 50 0
BBX 42 59 4 0
BITMAP
001E000F0000
003F001F8000
007F803FC000
007F803FC000
007F803FC000
007F803FC000
007F803FC000
007F803FC000
007F803FC000
007F803FC000
007F803FC000
007F803FC000
007F803FC000
007F803FC000
007F803FC000
007F803FC000
007F803FC000
3FFFFFFFFF00
7FFFFFFFFF80
FFFFFFFFFFC0
FFFFFFFFFFC0
FFFFFFFFFFC0
FFFFFFFFFFC0
7FFFFFFFFF80
3FFFFFFFFF00
007F803FC000
007F803FC000
007F803FC000
007F803FC000
007F803FC000
007F803FC000
007F803FC000
007F803FC000
007F803FC000
3FFFFFFFFF00
7FFFFFFFFF80
FFFFFFFFFFC0
FFFFFFFFFFC0
FFFFFFFFFFC0
FFFFFFFFFFC0
7FFFFFFFFF80
3FFFFFFFFF00
007F803FC000
007F803FC000
007F803FC000
007F803FC000
007F803FC000
007F803FC000
007F803FC000
007F803FC000
007F803FC000
007F803FC000
007F803FC000
007F803FC000
007F803FC000
007F803FC000
007F803FC000
003F001F8000
001E000F0000
ENDCHAR
STARTCHAR 0024
ENCODING 36
SWIDTH 573 0
DWIDTH 51 0
BBX 42 59 4 0
BITMAP
00001E000000
00003F000000
00007F800000
00007F800000
00007F800000
00007F800000
00007F800000
00007F800000
00007F800000
00FFFFFFFF80
03FFFFFFFFC0
07FFFFFFFFC0
0FFFFFFFFFC0
1FFFFFFFFFC0
3FFFFFFFFFC0
7FFFFFFFFF80
7FFFFFFFFF00
7FE07F800000
FFC07F800000
FF807F800000
FF807F800000
FF007F800000
FF807F800000
FF807F800000
FFC07F800000
7FF07F800000
7FFFFFFFC000
3FFFFFFFF000
3FFFFFFFFC00
1FFFFFFFFE00
0FFFFFFFFF00
07FFFFFFFF00
01FFFFFFFF80
007FFFFFFFC0
00007F80FFC0
00007F807FC0
00007F803FC0
00007F803FC0
00007F803FC0
00007F803FC0
00007F807FC0
00007F80FFC0
3FFFFFFFFFC0
7FFFFFFFFF80
FFFFFFFFFF80
FFFFFFFFFF00
FFFFFFFFFE00
FFFFFFFFFC00
7FFFFFFFF000
3FFFFFFFC000
00007F800000
00007F800000
00007F800000
00007F800000
00007F800000
00007F800000
00007F800000
00003F000000
00001E000000
ENDCHAR
STARTCHAR 0025
ENCODING 37
SWIDTH 573 0
DWIDTH 51 0
BBX 42 59 4 0
BITMAP
3FFE00000F00
7FFF00001F80
FFFF80003FC0
FFFF80003FC0
FFFF80003FC0
FFFF80003FC0
FFFF80003FC0
FFFF80003FC0
FFFF80003FC0
FFFF80003FC0
FFFF80003FC0
FFFF80007FC0
FFFF8000FFC0
FFFF8001FFC0
FFFF8003FFC0
7FFF0007FF80
3FFE000FFF00
0000001FFE00
0000003FFC00
0000007FF800
000000FFF000
000001FFE000
000003FFC000
000007FF8000
00000FFF0000
00001FFE0000
00003FFC0000
00007FF80000
0000FFF00000
0001FFE00000
0003FFC00000
0007FF800000
000FFF000000
001FFE000000
003FFC000000
007FF8000000
00FFF0000000
01FFE0000000
03FFC0000000
07FF80000000
0FFF00000000
1FFE00000000
3FFC001FFF00
7FF8003FFF80
FFF0007FFFC0
FFE0007FFFC0
FFC0007FFFC0
FF80007FFFC0
FF00007FFFC0
FF00007FFFC0
FF00007FFFC0
FF00007FFFC0
FF00007FFFC0
FF00007FFFC0
FF00007FFFC0
FF00007FFFC0
FF00007FFFC0
7E00003FFF80
3C00001FFF00
ENDCHAR
STARTCHAR 0026
ENCODING 38
SWIDTH 573 0
DWIDTH 51 0
BBX 42 59 4 0
BITMAP
007F00000000
01FFE0000000
07FFF0000000
0FFFF8000000
1FFFFC000000
3FFFFE000000
3FFFFF000000
7FFFFF000000
7FF7FF800000
FFC1FF800000
FF80FF800000
FF807F800000
FF007F800000
FF007F800000
FF007F800000
FF007F800000
FF007F800000
FF007F800000
FF007F800000
FF807F800000
FFC0FF800000
FFE1FF800000
FFF3FF800000
7FFFFF800000
3FFFFF000000
1FFFFE000000
0FFFFC000000
07FFF8000000
03FFF0000000
01FFE0000000
03FFE0000000
07FFF0000000
0FFFF8000000
1FFFFC000000
3FFFFE000F00
7FFFFF801F80
FFF3FFC03FC0
FFE1FFE07FC0
FFC0FFF0FFC0
FF807FF9FFC0
FF003FFFFFC0
FF001FFFFF80
FF000FFFFF00
FF0007FFFE00
FF0003FFFC00
FF0001FFF800
FF0000FFF000
FF8001FFF800
FF8003FFFC00
FFC007FFFE00
7FF00FFFFF00
7FFFFFFFFF80
3FFFFFFBFFC0
3FFFFFF1FFC0
1FFFFFE0FFC0
0FFFFFC07FC0
07FFFF803FC0
01FFFF001F80
007FFE000F00
ENDCHAR
STARTCHAR 0027
ENCODING 39
SWIDTH 573 0
DWIDTH 51 0
BBX 8 17 21 42
BITMAP
3C
7E
FF
FF
FF
FF
FF
FF
FF
FF
FF
FF
FF
FF
FF
7E
3C
ENDCHAR
STARTCHAR 0028
ENCODING 40
SWIDTH 573 0
DWIDTH 51 0
BBX 17 59 21 0
BITMAP
007E00
01FF00
07FF80
0FFF80
1FFF80
3FFF80
3FFF00
7FFE00
7FF000
FFC000
FF8000
FF8000
FF0000
FF0000
FF0000
FF0000
FF0000
FF0000
FF0000
FF0000
FF0000
FF0000
FF0000
FF0000
FF0000
FF0000
FF0000
FF0000
FF0000
FF0000
FF0000
FF0000
FF0000
FF0000
FF0000
FF0000
FF0000
FF0000
FF0000
FF0000
FF0000
FF0000
FF0000
FF0000
FF0000
FF0000
FF0000
FF8000
FF8000
FFC000
7FF000
7FFE00
3FFF00
3FFF80
1FFF80
0FFF80
07FF80
01FF00
007E00
ENDCHAR
STARTCHAR 0029
ENCODING 41
SWIDTH 573 0
DWIDTH 51 0
BBX 17 59 12 0
BITMAP
1F0000
3FE000
7FF000
7FF800
7FFC00
7FFE00
7FFF00
3FFF00
07FF80
01FF80
00FF80
007F80
007F80
007F80
007F80
007F80
007F80
007F80
007F80
007F80
007F80
007F80
007F80
007F80
007F80
007F80
007F80
007F80
007F80
007F80
007F80
007F80
007F80
007F80
007F80
007F80
007F80
007F80
007F80
007F80
007F80
007F80
007F80
007F80
007F80
007F80
007F80
007F80
00FF80
00FF80
07FF80
3FFF00
7FFF00
7FFE00
FFFC00
7FF800
7FF000
3FE000
1F0000
ENDCHAR
STARTCHAR 002A
ENCODING 42
SWIDTH 562 0
DWIDTH 50 0
BBX 42 42 4 17
BITMAP
001E000F0000
003F001F8000
007F803FC000
007F803FC000
007FC07FC000
007FC07FC000
003FE0FF8000
003FE0FF8000
001FF1FF0000
001FF1FF0000
000FFBFE0000
000FFBFE0000
0007FFFC0000
0003FFFC0000
0003FFF80000
0001FFF00000
0001FFF00000
3FFFFFFFFF00
7FFFFFFFFF80
FFFFFFFFFFC0
FFFFFFFFFFC0
FFFFFFFFFFC0
FFFFFFFFFFC0
7FFFFFFFFF80
3FFFFFFFFF00
0001FFF00000
0001FFF00000
0003FFF80000
0003FFF80000
0007FFFC0000
0007FBFC0000
000FFBFE0000
000FF1FE0000
001FF1FF0000
001FE0FF0000
003FE0FF8000
007FC07FC000
007FC07FC000
007F803FC000
007F803FC000
003F001F8000
001F001F0000
ENDCHAR
STARTCHAR 002B
ENCODING 43
SWIDTH 562 0
DWIDTH 50 0
BBX 42 42 4 8
BITMAP
00001E000000
00003F000000
00007F800000
00007F800000
00007F800000
00007F800000
00007F800000
00007F800000
00007F800000
00007F800000
00007F800000
00007F800000
00007F800000
00007F800000
00007F800000
00007F800000
00007F800000
3FFFFFFFFF00
7FFFFFFFFF80
FFFFFFFFFFC0
FFFFFFFFFFC0
FFFFFFFFFFC0
FFFFFFFFFFC0
7FFFFFFFFF80
3FFFFFFFFF00
00007F800000
00007F800000
00007F800000
00007F800000
00007F800000
00007F800000
00007F800000
00007F800000
00007F800000
00007F800000
00007F800000
00007F800000
00007F800000
00007F800000
00007F800000
00003F000000
00001E000000
ENDCHAR
STARTCHAR 002C
ENCODING 44
SWIDTH 573 0
DWIDTH 51 0
BBX 17 25 13 -8
BITMAP
3FFE00
7FFF00
FFFF80
FFFF80
FFFF80
FFFF80
FFFF80
FFFF80
FFFF80
FFFF80
FFFF80
FFFF80
FFFF80
FFFF80
FFFF00
FFFF00
FFFE00
FFFC00
FFF800
FFF000
FFE000
FFC000
FF8000
7E0000
3C0000
ENDCHAR
STARTCHAR 002D
ENCODING 45
SWIDTH 562 0
DWIDTH 50 0
BBX 42 8 4 25
BITMAP
3FFFFFFFFF00
7FFFFFFFFF80
FFFFFFFFFFC0
FFFFFFFFFFC0
FFFFFFFFFFC0
FFFFFFFFFFC0
7FFFFFFFFF80
3FFFFFFFFF00
ENDCHAR
STARTCHAR 002E
ENCODING 46
SWIDTH 573 0
DWIDTH 51 0
BBX 17 17 13 0
BITMAP
3FFE00
7FFF00
FFFF80
FFFF80
FFFF80
FFFF80
FFFF80
FFFF80
FFFF80
FFFF80
FFFF80
FFFF80
FFFF80
FFFF80
FFFF80
7FFF00
3FFE00
ENDCHAR
STARTCHAR 002F
ENCODING 47
SWIDTH 573 0
DWIDTH 51 0
BBX 42 59 4 0
BITMAP
000000000F00
000000001F80
000000003FC0
000000003FC0
000000003FC0
000000003FC0
000000003FC0
000000003FC0
000000003FC0
000000003FC0
000000003FC0
000000007FC0
00000000FFC0
00000001FFC0
00000003FFC0
00000007FF80
0000000FFF00
0000001FFE00
0000003FFC00
0000007FF800
000000FFF000
000001FFE000
000003FFC000
000007FF8000
00000FFF0000
00001FFE0000
00003FFC0000
00007FF80000
0000FFF00000
0001FFE00000
0003FFC00000
0007FF800000
000FFF000000
001FFE000000
003FFC000000
007FF8000000
00FFF0000000
01FFE0000000
03FFC0000000
07FF80000000
0FFF00000000
1FFE00000000
3FFC00000000
7FF800000000
FFF000000000
FFE000000000
FFC000000000
FF8000000000
FF0000000000
FF0000000000
FF0000000000
FF0000000000
FF0000000000
FF0000000000
FF0000000000
FF0000000000
FF0000000000
7E0000000000
3C0000000000
ENDCHAR
STARTCHAR 0030
ENCODING 48
SWIDTH 573 0
DWIDTH 51 0
BBX 42 59 4 0
BITMAP
007FFFFF8000
01FFFFFFF000
07FFFFFFF800
0FFFFFFFFC00
1FFFFFFFFE00
3FFFFFFFFF00
3FFFFFFFFF80
7FFFFFFFFF80
7FF00003FFC0
FFC00000FFC0
FF8000007FC0
FF8000003FC0
FF0000003FC0
FF0000007FC0
FF000000FFC0
FF000001FFC0
FF000003FFC0
FF000007FFC0
FF00001FFFC0
FF00003FFFC0
FF00007FFFC0
FF0000FFFFC0
FF0001FFFFC0
FF0003FFFFC0
FF0007FFBFC0
FF000FFF3FC0
FF003FFE3FC0
FF007FFC3FC0
FF00FFF83FC0
FF01FFE03FC0
FF03FFC03FC0
FF07FF803FC0
FF0FFF003FC0
FF1FFE003FC0
FF7FFC003FC0
FFFFF8003FC0
FFFFF0003FC0
FFFFC0003FC0
FFFF80003FC0
FFFF00003FC0
FFFE00003FC0
FFFC00003FC0
FFF800003FC0
FFF000003FC0
FFE000003FC0
FF8000003FC0
FF0000003FC0
FF8000003FC0
FF8000007FC0
FFC000007FC0
7FF00003FFC0
7FFFFFFFFF80
3FFFFFFFFF80
3FFFFFFFFF00
1FFFFFFFFE00
0FFFFFFFFC00
07FFFFFFF800
01FFFFFFF000
007FFFFF8000
ENDCHAR
STARTCHAR 0031
ENCODING 49
SWIDTH 573 0
DWIDTH 51 0
BBX 25 59 13 0
BITMAP
001E0000
003F0000
007F8000
01FF8000
03FF8000
07FF8000
0FFF8000
1FFF8000
3FFF8000
7FFF8000
7FFF8000
FFFF8000
FFFF8000
FFFF8000
FF7F8000
7E7F8000
1C7F8000
007F8000
007F8000
007F8000
007F8000
007F8000
007F8000
007F8000
007F8000
007F8000
007F8000
007F8000
007F8000
007F8000
007F8000
007F8000
007F8000
007F8000
007F8000
007F8000
007F8000
007F8000
007F8000
007F8000
007F8000
007F8000
007F8000
007F8000
007F8000
007F8000
007F8000
007F8000
007F8000
007F8000
007F8000
3FFFFE00
7FFFFF00
FFFFFF80
FFFFFF80
FFFFFF80
FFFFFF80
7FFFFF00
3FFFFE00
ENDCHAR
STARTCHAR 0032
ENCODING 50
SWIDTH 573 0
DWIDTH 51 0
BBX 42 59 4 0
BITMAP
007FFFFF8000
01FFFFFFF000
07FFFFFFF800
0FFFFFFFFC00
1FFFFFFFFE00
3FFFFFFFFF00
3FFFFFFFFF80
7FFFFFFFFF80
7FF00003FFC0
FFC00000FFC0
FF8000007FC0
FF8000003FC0
FF0000003FC0
FF0000003FC0
FF0000003FC0
7E0000003FC0
1C0000003FC0
000000003FC0
000000003FC0
000000003FC0
000000007FC0
00000000FFC0
00000001FFC0
00000003FFC0
00000007FF80
0000000FFF00
0000001FFE00
0000003FFC00
0000007FF800
000000FFF000
000001FFE000
000003FFC000
000007FF8000
00000FFF0000
00001FFE0000
00003FFC0000
00007FF80000
0000FFF00000
0001FFE00000
0003FFC00000
0007FF800000
000FFE000000
001FFC000000
003FF8000000
007FF0000000
00FFE0000000
01FFC0000000
03FF80000000
07FF00000000
0FFE00000000
1FFC00000000
3FFFFFFFFF80
7FFFFFFFFFC0
FFFFFFFFFFC0
FFFFFFFFFFC0
FFFFFFFFFFC0
FFFFFFFFFFC0
7FFFFFFFFF80
3FFFFFFFFF00
ENDCHAR
STARTCHAR 0033
ENCODING 51
SWIDTH 573 0
DWIDTH 51 0
BBX 42 59 4 0
BITMAP
007FFFFF8000
01FFFFFFF000
07FFFFFFF800
0FFFFFFFFC00
1FFFFFFFFE00
3FFFFFFFFF00
3FFFFFFFFF80
7FFFFFFFFF80
7FF00003FFC0
FFC00000FFC0
FF8000007FC0
FF8000003FC0
FF0000003FC0
FF0000003FC0
FF0000003FC0
7E0000003FC0
3C0000003FC0
000000003FC0
000000003FC0
000000003FC0
000000003FC0
000000003FC0
000000003FC0
000000007FC0
00000000FFC0
00000003FFC0
00001FFFFF80
00003FFFFF80
00007FFFFF00
00007FFFFE00
00007FFFFE00
00007FFFFF00
00003FFFFF80
00001FFFFF80
00000000FFC0
000000007FC0
000000003FC0
000000003FC0
000000003FC0
000000003FC0
000000003FC0
000000003FC0
1C0000003FC0
7E0000003FC0
7F0000003FC0
FF0000003FC0
FF0000003FC0
FF8000003FC0
FF8000007FC0
FFC000007FC0
7FF00003FFC0
7FFFFFFFFF80
3FFFFFFFFF80
3FFFFFFFFF00
1FFFFFFFFE00
0FFFFFFFFC00
07FFFFFFF800
01FFFFFFF000
007FFFFF8000
ENDCHAR
STARTCHAR 0034
ENCODING 52
SWIDTH 573 0
DWIDTH 51 0
BBX 42 59 4 0
BITMAP
0000000F0000
0000001F8000
0000003FC000
0000003FC000
0000003FC000
0000003FC000
0000003FC000
0000003FC000
0800003FC000
3E00003FC000
7F00003FC000
FF00003FC000
FF00003FC000
FF00003FC000
FF00003FC000
FF00003FC000
FF00003FC000
FF00003FC000
FF00003FC000
FF00003FC000
FF00003FC000
FF00003FC000
FF00003FC000
FF00003FC000
FF00003FC000
FF00003FC000
FF00003FC000
FF00003FC000
FF00003FC000
FF00003FC000
FF00003FC000
FF00003FC000
FF00003FC000
FF00003FC000
FFFFFFFFFF00
FFFFFFFFFF80
FFFFFFFFFFC0
FFFFFFFFFFC0
FFFFFFFFFFC0
FFFFFFFFFFC0
7FFFFFFFFFC0
3FFFFFFFFF80
0000003FC000
0000003FC000
0000003FC000
0000003FC000
0000003FC000
0000003FC000
0000003FC000
0000003FC000
0000003FC000
0000003FC000
0000003FC000
0000003FC000
0000003FC000
0000003FC000
0000003FC000
0000001F8000
0000000F0000
ENDCHAR
STARTCHAR 0035
ENCODING 53
SWIDTH 573 0
DWIDTH 51 0
BBX 42 59 4 0
BITMAP
3FFFFFFFFF00
7FFFFFFFFF80
FFFFFFFFFFC0
FFFFFFFFFFC0
FFFFFFFFFFC0
FFFFFFFFFFC0
FFFFFFFFFFC0
FFFFFFFFFF80
FF0000000000
FF0000000000
FF0000000000
FF0000000000
FF0000000000
FF0000000000
FF0000000000
FF0000000000
FF0000000000
FF0000000000
FF0000000000
FF0000000000
FF0000000000
FF0000000000
FF0000000000
FF0000000000
FF0000000000
FF0000000000
FFFFFFFFC000
FFFFFFFFF000
FFFFFFFFFC00
FFFFFFFFFE00
FFFFFFFFFF00
FFFFFFFFFF00
7FFFFFFFFF80
3FFFFFFFFFC0
00000000FFC0
000000007FC0
000000003FC0
000000003FC0
000000003FC0
000000003FC0
000000003FC0
000000003FC0
000000003FC0
000000003FC0
000000003FC0
000000003FC0
000000003FC0
000000003FC0
000000007FC0
000000007FC0
00000003FFC0
3FFFFFFFFF80
7FFFFFFFFF80
FFFFFFFFFF00
FFFFFFFFFE00
FFFFFFFFFC00
FFFFFFFFF800
7FFFFFFFF000
3FFFFFFF8000
ENDCHAR
STARTCHAR 0036
ENCODING 54
SWIDTH 573 0
DWIDTH 51 0
BBX 42 59 4 0
BITMAP
007FFFFF0000
01FFFFFF8000
07FFFFFFC000
0FFFFFFFC000
1FFFFFFFC000
3FFFFFFFC000
3FFFFFFF8000
7FFFFFFF0000
7FF000000000
FFC000000000
FF8000000000
FF8000000000
FF0000000000
FF0000000000
FF0000000000
FF0000000000
FF0000000000
FF0000000000
FF0000000000
FF0000000000
FF0000000000
FF0000000000
FF0000000000
FF0000000000
FF0000000000
FF0000000000
FFFFFFFFE000
FFFFFFFFF800
FFFFFFFFFC00
FFFFFFFFFE00
FFFFFFFFFF00
FFFFFFFFFF80
FFFFFFFFFF80
FFFFFFFFFFC0
FF000000FFC0
FF0000007FC0
FF0000003FC0
FF0000003FC0
FF0000003FC0
FF0000003FC0
FF0000003FC0
FF0000003FC0
FF0000003FC0
FF0000003FC0
FF0000003FC0
FF0000003FC0
FF0000003FC0
FF8000003FC0
FF8000007FC0
FFC000007FC0
7FF00003FFC0
7FFFFFFFFF80
3FFFFFFFFF80
3FFFFFFFFF00
1FFFFFFFFE00
0FFFFFFFFC00
07FFFFFFF800
01FFFFFFF000
007FFFFF8000
ENDCHAR
STARTCHAR 0037
ENCODING 55
SWIDTH 573 0
DWIDTH 51 0
BBX 42 59 4 0
BITMAP
3FFFFFFFFF00
7FFFFFFFFF80
FFFFFFFFFFC0
FFFFFFFFFFC0
FFFFFFFFFFC0
FFFFFFFFFFC0
7FFFFFFFFFC0
3FFFFFFFFFC0
000000003FC0
000000003FC0
000000003FC0
000000003FC0
000000003FC0
000000003FC0
000000003FC0
000000003FC0
000000003FC0
000000003FC0
000000003FC0
000000003FC0
000000007FC0
00000000FFC0
00000001FFC0
00000003FFC0
00000007FF80
0000000FFF00
0000001FFE00
0000003FFC00
0000007FF800
000000FFF000
000001FFE000
000003FFC000
000007FF8000
00000FFF0000
00001FFE0000
00003FFC0000
00007FF80000
0000FFF00000
0001FFE00000
0003FFC00000
0007FF800000
000FFF000000
001FFE000000
003FFC000000
007FF8000000
00FFF0000000
01FFE0000000
03FFC0000000
07FF80000000
0FFF00000000
1FFE00000000
3FFC00000000
7FF800000000
FFF000000000
FFC000000000
FF8000000000
FF0000000000
7E0000000000
3C0000000000
ENDCHAR
STARTCHAR 0038
ENCODING 56
SWIDTH 573 0
DWIDTH 51 0
BBX 42 59 4 0
BITMAP
007FFFFF8000
01FFFFFFF000
07FFFFFFF800
0FFFFFFFFC00
1FFFFFFFFE00
3FFFFFFFFF00
3FFFFFFFFF80
7FFFFFFFFF80
7FF00003FFC0
FFC00000FFC0
FF8000007FC0
FF8000003FC0
FF0000003FC0
FF0000003FC0
FF0000003FC0
FF0000003FC0
FF0000003FC0
FF0000003FC0
FF0000003FC0
FF0000003FC0
FF0000003FC0
FF0000003FC0
FF8000003FC0
FF8000007FC0
FFC00000FFC0
7FF00003FFC0
7FFFFFFFFF80
3FFFFFFFFF80
1FFFFFFFFF00
0FFFFFFFFE00
1FFFFFFFFE00
3FFFFFFFFF00
7FFFFFFFFF80
7FFFFFFFFF80
7FE00000FFC0
FF8000007FC0
FF8000003FC0
FF8000003FC0
FF0000003FC0
FF0000003FC0
FF0000003FC0
FF0000003FC0
FF0000003FC0
FF0000003FC0
FF0000003FC0
FF0000003FC0
FF0000003FC0
FF8000003FC0
FF8000007FC0
FFC000007FC0
7FF00003FFC0
7FFFFFFFFF80
3FFFFFFFFF80
3FFFFFFFFF00
1FFFFFFFFE00
0FFFFFFFFC00
07FFFFFFF800
01FFFFFFF000
007FFFFF8000
ENDCHAR
STARTCHAR 0039
ENCODING 57
SWIDTH 573 0
DWIDTH 51 0
BBX 42 59 4 0
BITMAP
007FFFFF8000
01FFFFFFF000
07FFFFFFF800
0FFFFFFFFC00
1FFFFFFFFE00
3FFFFFFFFF00
3FFFFFFFFF80
7FFFFFFFFF80
7FF00003FFC0
FFC00000FFC0
FF8000007FC0
FF8000003FC0
FF0000003FC0
FF0000003FC0
FF0000003FC0
FF0000003FC0
FF0000003FC0
FF0000003FC0
FF0000003FC0
FF0000003FC0
FF0000003FC0
FF0000003FC0
FF8000003FC0
FF8000003FC0
FFC000003FC0
7FF000003FC0
7FFFFFFFFFC0
7FFFFFFFFFC0
3FFFFFFFFFC0
1FFFFFFFFFC0
0FFFFFFFFFC0
07FFFFFFFFC0
03FFFFFFFFC0
007FFFFFFFC0
000000003FC0
000000003FC0
000000003FC0
000000003FC0
000000003FC0
000000003FC0
000000003FC0
000000003FC0
000000003FC0
000000003FC0
000000003FC0
000000003FC0
000000003FC0
000000003FC0
000000007FC0
000000007FC0
00000003FFC0
3FFFFFFFFF80
7FFFFFFFFF80
FFFFFFFFFF00
FFFFFFFFFE00
FFFFFFFFFC00
FFFFFFFFF800
7FFFFFFFF000
3FFFFFFF8000
ENDCHAR
STARTCHAR 003A
ENCODING 58
SWIDTH 573 0
DWIDTH 51 0
BBX 17 50 13 0
BITMAP
3FFE00
7FFF00
FFFF80
FFFF80
FFFF80
FFFF80
FFFF80
FFFF80
FFFF80
FFFF80
FFFF80
FFFF80
FFFF80
FFFF80
FFFF80
7FFF00
3FFE00
000000
000000
000000
000000
000000
000000
000000
000000
000000
000000
000000
000000
000000
000000
000000
000000
3FFE00
7FFF00
FFFF80
FFFF80
FFFF80
FFFF80
FFFF80
FFFF80
FFFF80
FFFF80
FFFF80
FFFF80
FFFF80
FFFF80
FFFF80
7FFF00
3FFE00
ENDCHAR
STARTCHAR 003B
ENCODING 59
SWIDTH 573 0
DWIDTH 51 0
BBX 17 59 13 -8
BITMAP
3FFE00
7FFF00
FFFF80
FFFF80
FFFF80
FFFF80
FFFF80
FFFF80
FFFF80
FFFF80
FFFF80
FFFF80
FFFF80
FFFF80
FFFF80
7FFF00
3FFE00
000000
000000
000000
000000
000000
000000
000000
000000
000000
000000
000000
000000
000000
000000
000000
000000
000000
3FFE00
7FFF00
FFFF80
FFFF80
FFFF80
FFFF80
FFFF80
FFFF80
FFFF80
FFFF80
FFFF80
FFFF80
FFFF80
FFFF80
FFFF00
FFFF00
FFFE00
FFFC00
FFF800
FFF000
FFE000
FFC000
FF8000
7E0000
3C0000
ENDCHAR
STARTCHAR 003C
ENCODING 60
SWIDTH 573 0
DWIDTH 51 0
BBX 34 59 4 0
BITMAP
0000000F00
0000001F80
0000003FC0
000000FFC0
000001FFC0
000003FFC0
000007FF80
00000FFF00
00001FFE00
00003FFC00
00007FF800
0000FFF000
0001FFE000
0003FFC000
0007FF8000
000FFF0000
001FFE0000
003FFC0000
007FF80000
00FFF00000
01FFE00000
03FFC00000
07FF800000
0FFF000000
1FFE000000
3FFC000000
7FF8000000
7FF0000000
FFE0000000
FFC0000000
FFE0000000
7FF0000000
7FF8000000
3FFC000000
1FFE000000
0FFF000000
07FF800000
03FFC00000
01FFE00000
00FFF00000
007FF80000
003FFC0000
001FFE0000
000FFF0000
0007FF8000
0003FFC000
0001FFE000
0000FFF000
00007FF800
00003FFC00
00001FFE00
00000FFF00
000007FF80
000003FFC0
000000FFC0
0000007FC0
0000003FC0
0000001F80
0000000F00
ENDCHAR
STARTCHAR 003D
ENCODING 61
SWIDTH 562 0
DWIDTH 50 0
BBX 42 25 4 17
BITMAP
3FFFFFFFFF00
7FFFFFFFFF80
FFFFFFFFFFC0
FFFFFFFFFFC0
FFFFFFFFFFC0
FFFFFFFFFFC0
7FFFFFFFFF80
3FFFFFFFFF00
000000000000
000000000000
000000000000
000000000000
000000000000
000000000000
000000000000
000000000000
000000000000
3FFFFFFFFF00
7FFFFFFFFF80
FFFFFFFFFFC0
FFFFFFFFFFC0
FFFFFFFFFFC0
FFFFFFFFFFC0
7FFFFFFFFF80
3FFFFFFFFF00
ENDCHAR
STARTCHAR 003E
ENCODING 62
SWIDTH 573 0
DWIDTH 51 0
BBX 34 59 13 0
BITMAP
3C00000000
7E00000000
FF00000000
FFC0000000
FFE0000000
FFF0000000
7FF8000000
3FFC000000
1FFE000000
0FFF000000
07FF800000
03FFC00000
01FFE00000
00FFF00000
007FF80000
003FFC0000
001FFE0000
000FFF0000
0007FF8000
0003FFC000
0001FFE000
0000FFF000
00007FF800
00003FFC00
00001FFE00
00000FFF00
000007FF80
000003FF80
000001FFC0
000000FFC0
000001FFC0
000003FF80
000007FF80
00000FFF00
00001FFE00
00003FFC00
00007FF800
0000FFF000
0001FFE000
0003FFC000
0007FF8000
000FFF0000
001FFE0000
003FFC0000
007FF80000
00FFF00000
01FFE00000
03FFC00000
07FF800000
0FFF000000
1FFE000000
3FFC000000
7FF8000000
FFF0000000
FFC0000000
FF80000000
FF00000000
7E00000000
3C00000000
ENDCHAR
STARTCHAR 003F
ENCODING 63
SWIDTH 573 0
DWIDTH 51 0
BBX 42 59 4 0
BITMAP
007FFFFF8000
01FFFFFFF000
07FFFFFFF800
0FFFFFFFFC00
1FFFFFFFFE00
3FFFFFFFFF00
3FFFFFFFFF80
7FFFFFFFFF80
7FF00003FFC0
FFC00000FFC0
FF8000007FC0
FF8000003FC0
FF0000003FC0
FF0000003FC0
FF0000003FC0
7E0000003FC0
1C0000003FC0
000000003FC0
000000003FC0
000000003FC0
000000007FC0
00000000FFC0
00000001FFC0
00000003FFC0
00000007FF80
0000000FFF00
0000001FFE00
0000003FFC00
0000007FF800
000000FFF000
000001FFE000
000003FFC000
000007FF8000
00000FFF0000
00001FFE0000
00003FFC0000
00007FF80000
00007FF00000
00007FE00000
00007FC00000
00003F800000
00001E000000
000000000000
000000000000
000000000000
000000000000
000000000000
000000000000
000000000000
000000000000
000000000000
00001F000000
00003F800000
00007F800000
00007F800000
00007F800000
00007F800000
00003F000000
00001E000000
ENDCHAR
STARTCHAR 0040
ENCODING 64
SWIDTH 573 0
DWIDTH 51 0
BBX 42 59 4 0
BITMAP
007FFFFF8000
01FFFFFFF000
07FFFFFFF800
0FFFFFFFFC00
1FFFFFFFFE00
3FFFFFFFFF00
3FFFFFFFFF80
7FFFFFFFFF80
7FF00003FFC0
FFC00000FFC0
FF8000007FC0
FF8000003FC0
FF0000003FC0
FF0000003FC0
FF0000003FC0
FF0000003FC0
FF0000003FC0
FF00003FFFC0
FF0000FFFFC0
FF0003FFFFC0
FF0007FFFFC0
FF000FFFFFC0
FF001FFFFFC0
FF001FFFFFC0
FF003FFFFFC0
FF003FFBFFC0
FF007FE0FFC0
FF007FC07FC0
FF007FC03FC0
FF007F803FC0
FF007FC03FC0
FF007FC03FC0
FF007FE07FC0
FF003FF0FFC0
FF003FFFFF80
FF003FFFFF80
FF001FFFFF00
FF000FFFFF00
FF0007FFFE00
FF0003FFFC00
FF0001FFF000
FF00007FC000
FF0000000000
FF0000000000
FF0000000000
FF0000000000
FF0000000000
FF8000000000
FF8000000000
FFC000000000
7FF000000000
7FFFFFFFFF80
3FFFFFFFFFC0
3FFFFFFFFFC0
1FFFFFFFFFC0
0FFFFFFFFFC0
07FFFFFFFFC0
01FFFFFFFF80
007FFFFFFF00
ENDCHAR
STARTCHAR 0041
ENCODING 65
SWIDTH 573 0
DWIDTH 51 0
BBX 42 59 4 0
BITMAP
007FFFFF8000
01FFFFFFF000
07FFFFFFF800
0FFFFFFFFC00
1FFFFFFFFE00
3FFFFFFFFF00
3FFFFFFFFF80
7FFFFFFFFF80
7FF00003FFC0
FFC00000FFC0
FF8000007FC0
FF8000003FC0
FF0000003FC0
FF0000003FC0
FF0000003FC0
FF0000003FC0
FF0000003FC0
FF0000003FC0
FF0000003FC0
FF0000003FC0
FF0000003FC0
FF0000003FC0
FF0000003FC0
FF0000003FC0
FF0000003FC0
FF0000003FC0
FFFFFFFFFFC0
FFFFFFFFFFC0
FFFFFFFFFFC0
FFFFFFFFFFC0
FFFFFFFFFFC0
FFFFFFFFFFC0
FFFFFFFFFFC0
FFFFFFFFFFC0
FF0000003FC0
FF0000003FC0
FF0000003FC0
FF0000003FC0
FF0000003FC0
FF0000003FC0
FF0000003FC0
FF0000003FC0
FF0000003FC0
FF0000003FC0
FF0000003FC0
FF0000003FC0
FF0000003FC0
FF0000003FC0
FF0000003FC0
FF0000003FC0
FF0000003FC0
FF0000003FC0
FF0000003FC0
FF0000003FC0
FF0000003FC0
FF0000003FC0
FF0000003FC0
7E0000001F80
3C0000000F00
ENDCHAR
STARTCHAR 0042
ENCODING 66
SWIDTH 573 0
DWIDTH 51 0
BBX 42 59 4 0
BITMAP
3FFFFFFF8000
7FFFFFFFF000
FFFFFFFFF800
FFFFFFFFFC00
FFFFFFFFFE00
FFFFFFFFFF00
FFFFFFFFFF80
FFFFFFFFFF80
FF000003FFC0
FF000000FFC0
FF0000007FC0
FF0000003FC0
FF0000003FC0
FF0000003FC0
FF0000003FC0
FF0000003FC0
FF0000003FC0
FF0000003FC0
FF0000003FC0
FF0000003FC0
FF0000003FC0
FF0000003FC0
FF0000003FC0
FF0000007FC0
FF000000FFC0
FF000003FFC0
FFFFFFFFFF80
FFFFFFFFFF80
FFFFFFFFFF00
FFFFFFFFFE00
FFFFFFFFFE00
FFFFFFFFFF00
FFFFFFFFFF80
FFFFFFFFFF80
FF000000FFC0
FF0000007FC0
FF0000003FC0
FF0000003FC0
FF0000003FC0
FF0000003FC0
FF0000003FC0
FF0000003FC0
FF0000003FC0
FF0000003FC0
FF0000003FC0
FF0000003FC0
FF0000003FC0
FF0000003FC0
FF0000007FC0
FF0000007FC0
FF000003FFC0
FFFFFFFFFF80
FFFFFFFFFF80
FFFFFFFFFF00
FFFFFFFFFE00
FFFFFFFFFC00
FFFFFFFFF800
7FFFFFFFF000
3FFFFFFF8000
ENDCHAR
STARTCHAR 0043
ENCODING 67
SWIDTH 573 0
DWIDTH 51 0
BBX 42 59 4 0
BITMAP
007FFFFF8000
01FFFFFFF000
07FFFFFFF800
0FFFFFFFFC00
1FFFFFFFFE00
3FFFFFFFFF00
3FFFFFFFFF80
7FFFFFFFFF80
7FF00003FFC0
FFC00000FFC0
FF8000007FC0
FF8000003FC0
FF0000003FC0
FF0000003FC0
FF0000003FC0
FF0000001F80
FF0000000700
FF0000000000
FF0000000000
FF0000000000
FF0000000000
FF0000000000
FF0000000000
FF0000000000
FF0000000000
FF0000000000
FF0000000000
FF0000000000
FF0000000000
FF0000000000
FF0000000000
FF0000000000
FF0000000000
FF0000000000
FF0000000000
FF0000000000
FF0000000000
FF0000000000
FF0000000000
FF0000000000
FF0000000000
FF0000000000
FF0000000700
FF0000001F80
FF0000003FC0
FF0000003FC0
FF0000003FC0
FF8000003FC0
FF8000007FC0
FFC000007FC0
7FF00003FFC0
7FFFFFFFFF80
3FFFFFFFFF80
3FFFFFFFFF00
1FFFFFFFFE00
0FFFFFFFFC00
07FFFFFFF800
01FFFFFFF000
007FFFFF8000
ENDCHAR
STARTCHAR 0044
ENCODING 68
SWIDTH 573 0
DWIDTH 51 0
BBX 42 59 4 0
BITMAP
3FFFFFFF8000
7FFFFFFFF000
FFFFFFFFF800
FFFFFFFFFC00
FFFFFFFFFE00
FFFFFFFFFF00
FFFFFFFFFF80
FFFFFFFFFF80
FF000003FFC0
FF000000FFC0
FF0000007FC0
FF0000003FC0
FF0000003FC0
FF0000003FC0
FF0000003FC0
FF0000003FC0
FF0000003FC0
FF0000003FC0
FF0000003FC0
FF0000003FC0
FF0000003FC0
FF0000003FC0
FF0000003FC0
FF0000003FC0
FF0000003FC0
FF0000003FC0
FF0000003FC0
FF0000003FC0
FF0000003FC0
FF0000003FC0
FF0000003FC0
FF0000003FC0
FF0000003FC0
FF0000003FC0
FF0000003FC0
FF0000003FC0
FF0000003FC0
FF0000003FC0
FF0000003FC0
FF0000003FC0
FF0000003FC0
FF0000003FC0
FF0000003FC0
FF0000003FC0
FF0000003FC0
FF0000003FC0
FF0000003FC0
FF0000003FC0
FF0000007FC0
FF0000007FC0
FF000003FFC0
FFFFFFFFFF80
FFFFFFFFFF80
FFFFFFFFFF00
FFFFFFFFFE00
FFFFFFFFFC00
FFFFFFFFF800
7FFFFFFFF000
3FFFFFFF8000
ENDCHAR
STARTCHAR 0045
ENCODING 69
SWIDTH 573 0
DWIDTH 51 0
BBX 42 59 4 0
BITMAP
3FFFFFFFFF00
7FFFFFFFFF80
FFFFFFFFFFC0
FFFFFFFFFFC0
FFFFFFFFFFC0
FFFFFFFFFFC0
FFFFFFFFFFC0
FFFFFFFFFF80
FF0000000000
FF0000000000
FF0000000000
FF0000000000
FF0000000000
FF0000000000
FF0000000000
FF0000000000
FF0000000000
FF0000000000
FF0000000000
FF0000000000
FF0000000000
FF0000000000
FF0000000000
FF0000000000
FF0000000000
FF0000000000
FFFFFFFF0000
FFFFFFFF8000
FFFFFFFFC000
FFFFFFFFC000
FFFFFFFFC000
FFFFFFFFC000
FFFFFFFF8000
FFFFFFFF0000
FF0000000000
FF0000000000
FF0000000000
FF0000000000
FF0000000000
FF0000000000
FF0000000000
FF0000000000
FF0000000000
FF0000000000
FF0000000000
FF0000000000
FF0000000000
FF0000000000
FF0000000000
FF0000000000
FF0000000000
FFFFFFFFFF80
FFFFFFFFFFC0
FFFFFFFFFFC0
FFFFFFFFFFC0
FFFFFFFFFFC0
FFFFFFFFFFC0
7FFFFFFFFF80
3FFFFFFFFF00
ENDCHAR
STARTCHAR 0046
ENCODING 70
SWIDTH 573 0
DWIDTH 51 0
BBX 42 59 4 0
BITMAP
3FFFFFFFFF00
7FFFFFFFFF80
FFFFFFFFFFC0
FFFFFFFFFFC0
FFFFFFFFFFC0
FFFFFFFFFFC0
FFFFFFFFFFC0
FFFFFFFFFF80
FF0000000000
FF0000000000
FF0000000000
FF0000000000
FF0000000000
FF0000000000
FF0000000000
FF0000000000
FF0000000000
FF0000000000
FF0000000000
FF0000000000
FF0000000000
FF0000000000
FF0000000000
FF0000000000
FF0000000000
FF0000000000
FFFFFFFF0000
FFFFFFFF8000
FFFFFFFFC000
FFFFFFFFC000
FFFFFFFFC000
FFFFFFFFC000
FFFFFFFF8000
FFFFFFFF0000
FF0000000000
FF0000000000
FF0000000000
FF0000000000
FF0000000000
FF0000000000
FF0000000000
FF0000000000
FF0000000000
FF0000000000
FF0000000000
FF0000000000
FF0000000000
FF0000000000
FF0000000000
FF0000000000
FF0000000000
FF0000000000
FF0000000000
FF0000000000
FF0000000000
FF0000000000
FF0000000000
7E0000000000
3C0000000000
ENDCHAR
STARTCHAR 0047
ENCODING 71
SWIDTH 573 0
DWIDTH 51 0
BBX 42 59 4 0
BITMAP
007FFFFF8000
01FFFFFFF000
07FFFFFFF800
0FFFFFFFFC00
1FFFFFFFFE00
3FFFFFFFFF00
3FFFFFFFFF80
7FFFFFFFFF80
7FF00003FFC0
FFC00000FFC0
FF8000007FC0
FF8000003FC0
FF0000003FC0
FF0000003FC0
FF0000003FC0
FF0000001F80
FF0000000F00
FF0000000000
FF0000000000
FF0000000000
FF0000000000
FF0000000000
FF0000000000
FF0000000000
FF0000000000
FF0000000000
FF00001FFF80
FF00003FFFC0
FF00003FFFC0
FF00007FFFC0
FF00003FFFC0
FF00003FFFC0
FF00001FFFC0
FF00000FFFC0
FF0000003FC0
FF0000003FC0
FF0000003FC0
FF0000003FC0
FF0000003FC0
FF0000003FC0
FF0000003FC0
FF0000003FC0
FF0000003FC0
FF0000003FC0
FF0000003FC0
FF0000003FC0
FF0000003FC0
FF8000003FC0
FF8000007FC0
FFC000007FC0
7FF00003FFC0
7FFFFFFFFF80
3FFFFFFFFF80
3FFFFFFFFF00
1FFFFFFFFE00
0FFFFFFFFC00
07FFFFFFF800
01FFFFFFF000
007FFFFF8000
ENDCHAR
STARTCHAR 0048
ENCODING 72
SWIDTH 573 0
DWIDTH 51 0
BBX 42 59 4 0
BITMAP
3C0000000F00
7E0000001F80
FF0000003FC0
FF0000003FC0
FF0000003FC0
FF0000003FC0
FF0000003FC0
FF0000003FC0
FF0000003FC0
FF0000003FC0
FF0000003FC0
FF0000003FC0
FF0000003FC0
FF0000003FC0
FF0000003FC0
FF0000003FC0
FF0000003FC0
FF0000003FC0
FF0000003FC0
FF0000003FC0
FF0000003FC0
FF0000003FC0
FF0000003FC0
FF0000003FC0
FF0000003FC0
FF0000003FC0
FFFFFFFFFFC0
FFFFFFFFFFC0
FFFFFFFFFFC0
FFFFFFFFFFC0
FFFFFFFFFFC0
FFFFFFFFFFC0
FFFFFFFFFFC0
FFFFFFFFFFC0
FF0000003FC0
FF0000003FC0
FF0000003FC0
FF0000003FC0
FF0000003FC0
FF0000003FC0
FF0000003FC0
FF0000003FC0
FF0000003FC0
FF0000003FC0
FF0000003FC0
FF0000003FC0
FF0000003FC0
FF0000003FC0
FF0000003FC0
FF0000003FC0
FF0000003FC0
FF0000003FC0
FF0000003FC0
FF0000003FC0
FF0000003FC0
FF0000003FC0
FF0000003FC0
7E0000001F80
3C0000000F00
ENDCHAR
STARTCHAR 0049
ENCODING 73
SWIDTH 573 0
DWIDTH 51 0
BBX 25 59 13 0
BITMAP
3FFFFE00
7FFFFF00
FFFFFF80
FFFFFF80
FFFFFF80
FFFFFF80
7FFFFF00
3FFFFE00
007F8000
007F8000
007F8000
007F8000
007F8000
007F8000
007F8000
007F8000
007F8000
007F8000
007F8000
007F8000
007F8000
007F8000
007F8000
007F8000
007F8000
007F8000
007F8000
007F8000
007F8000
007F8000
007F8000
007F8000
007F8000
007F8000
007F8000
007F8000
007F8000
007F8000
007F8000
007F8000
007F8000
007F8000
007F8000
007F8000
007F8000
007F8000
007F8000
007F8000
007F8000
007F8000
007F8000
3FFFFE00
7FFFFF00
FFFFFF80
FFFFFF80
FFFFFF80
FFFFFF80
7FFFFF00
3FFFFE00
ENDCHAR
STARTCHAR 004A
ENCODING 74
SWIDTH 573 0
DWIDTH 51 0
BBX 42 59 4 0
BITMAP
000000000F00
000000001F80
000000003FC0
000000003FC0
000000003FC0
000000003FC0
000000003FC0
000000003FC0
000000003FC0
000000003FC0
000000003FC0
000000003FC0
000000003FC0
000000003FC0
000000003FC0
000000003FC0
000000003FC0
000000003FC0
000000003FC0
000000003FC0
000000003FC0
000000003FC0
000000003FC0
000000003FC0
000000003FC0
000000003FC0
000000003FC0
000000003FC0
000000003FC0
000000003FC0
000000003FC0
000000003FC0
000000003FC0
000000003FC0
000000003FC0
000000003FC0
000000003FC0
000000003FC0
000000003FC0
000000003FC0
000000003FC0
000000003FC0
1C0000003FC0
7E0000003FC0
FF0000003FC0
FF0000003FC0
FF0000003FC0
FF8000003FC0
FF8000007FC0
FFC000007FC0
7FF00003FFC0
7FFFFFFFFF80
3FFFFFFFFF80
3FFFFFFFFF00
1FFFFFFFFE00
0FFFFFFFFC00
07FFFFFFF800
01FFFFFFF000
007FFFFF8000
ENDCHAR
STARTCHAR 004B
ENCODING 75
SWIDTH 573 0
DWIDTH 51 0
BBX 42 59 4 0
BITMAP
3C0000000F00
7E0000001F80
FF0000003FC0
FF0000007FC0
FF000000FFC0
FF000001FFC0
FF000003FFC0
FF000007FF80
FF00000FFF00
FF00001FFE00
FF00003FFC00
FF00007FF800
FF0000FFF000
FF0001FFE000
FF0003FFC000
FF0007FF8000
FF000FFF0000
FF001FFE0000
FF003FFC0000
FF007FF80000
FF00FFF00000
FF01FFE00000
FF03FFC00000
FF07FF800000
FF0FFF000000
FF1FFE000000
FF3FFC000000
FF7FF8000000
FFFFF0000000
FFFFE0000000
FFFFF0000000
FFFFF8000000
FFFFFC000000
FFFFFE000000
FFFFFF000000
FFF7FF800000
FFE3FFC00000
FFC1FFE00000
FF80FFF00000
FF007FF80000
FF003FFC0000
FF001FFE0000
FF000FFF0000
FF0007FF8000
FF0003FFC000
FF0001FFE000
FF0000FFF000
FF00007FF800
FF00003FFC00
FF00001FFE00
FF00000FFF00
FF000007FF80
FF000003FFC0
FF000001FFC0
FF000000FFC0
FF0000007FC0
FF0000003FC0
7E0000001F80
3C0000000F00
ENDCHAR
STARTCHAR 004C
ENCODING 76
SWIDTH 573 0
DWIDTH 51 0
BBX 42 59 4 0
BITMAP
3C0000000000
7E0000000000
FF0000000000
FF0000000000
FF0000000000
FF0000000000
FF0000000000
FF0000000000
FF0000000000
FF0000000000
FF0000000000
FF0000000000
FF0000000000
FF0000000000
FF0000000000
FF0000000000
FF0000000000
FF0000000000
FF0000000000
FF0000000000
FF0000000000
FF0000000000
FF0000000000
FF0000000000
FF0000000000
FF0000000000
FF0000000000
FF0000000000
FF0000000000
FF0000000000
FF0000000000
FF0000000000
FF0000000000
FF0000000000
FF0000000000
FF0000000000
FF0000000000
FF0000000000
FF0000000000
FF0000000000
FF0000000000
FF0000000000
FF0000000000
FF0000000000
FF0000000000
FF0000000000
FF0000000000
FF0000000000
FF0000000000
FF0000000000
FF0000000000
FFFFFFFFFF80
FFFFFFFFFFC0
FFFFFFFFFFC0
FFFFFFFFFFC0
FFFFFFFFFFC0
FFFFFFFFFFC0
7FFFFFFFFF80
3FFFFFFFFF00
ENDCHAR
STARTCHAR 004D
ENCODING 77
SWIDTH 573 0
DWIDTH 51 0
BBX 42 59 4 0
BITMAP
3C0000000F00
7E0000001F80
FF0000003FC0
FF8000007FC0
FFE00000FFC0
FFF00001FFC0
FFF80003FFC0
FFFC0007FFC0
FFFE000FFFC0
FFFF001FFFC0
FFFF803FFFC0
FFFFC07FFFC0
FFFFE0FFFFC0
FFFFF1FFFFC0
FF7FFBFFFFC0
FF3FFFFFBFC0
FF1FFFFF3FC0
FF0FFFFE3FC0
FF07FFFC3FC0
FF03FFF83FC0
FF01FFF03FC0
FF00FFE03FC0
FF007FC03FC0
FF003F803FC0
FF001F003FC0
FF0000003FC0
FF0000003FC0
FF0000003FC0
FF0000003FC0
FF0000003FC0
FF0000003FC0
FF0000003FC0
FF0000003FC0
FF0000003FC0
FF0000003FC0
FF0000003FC0
FF0000003FC0
FF0000003FC0
FF0000003FC0
FF0000003FC0
FF0000003FC0
FF0000003FC0
FF0000003FC0
FF0000003FC0
FF0000003FC0
FF0000003FC0
FF0000003FC0
FF0000003FC0
FF0000003FC0
FF0000003FC0
FF0000003FC0
FF0000003FC0
FF0000003FC0
FF0000003FC0
FF0000003FC0
FF0000003FC0
FF0000003FC0
7E0000001F80
3C0000000F00
ENDCHAR
STARTCHAR 004E
ENCODING 78
SWIDTH 573 0
DWIDTH 51 0
BBX 42 59 4 0
BITMAP
3C0000000F00
7E0000001F80
FF0000003FC0
FFC000003FC0
FFE000003FC0
FFF000003FC0
FFF800003FC0
FFFC00003FC0
FFFE00003FC0
FFFF00003FC0
FFFF80003FC0
FFFFC0003FC0
FFFFE0003FC0
FFFFF0003FC0
FF7FF8003FC0
FF3FFC003FC0
FF1FFE003FC0
FF0FFF003FC0
FF07FF803FC0
FF03FFC03FC0
FF01FFE03FC0
FF00FFF03FC0
FF007FF83FC0
FF003FFC3FC0
FF001FFE3FC0
FF000FFF3FC0
FF0007FFBFC0
FF0003FFFFC0
FF0001FFFFC0
FF0000FFFFC0
FF00007FFFC0
FF00003FFFC0
FF00001FFFC0
FF00000FFFC0
FF000007FFC0
FF000003FFC0
FF000001FFC0
FF000000FFC0
FF0000007FC0
FF0000003FC0
FF0000003FC0
FF0000003FC0
FF0000003FC0
FF0000003FC0
FF0000003FC0
FF0000003FC0
FF0000003FC0
FF0000003FC0
FF0000003FC0
FF0000003FC0
FF0000003FC0
FF0000003FC0
FF0000003FC0
FF0000003FC0
FF0000003FC0
FF0000003FC0
FF0000003FC0
7E0000001F80
3C0000000F00
ENDCHAR
STARTCHAR 004F
ENCODING 79
SWIDTH 573 0
DWIDTH 51 0
BBX 42 59 4 0
BITMAP
007FFFFF8000
01FFFFFFF000
07FFFFFFF800
0FFFFFFFFC00
1FFFFFFFFE00
3FFFFFFFFF00
3FFFFFFFFF80
7FFFFFFFFF80
7FF00003FFC0
FFC00000FFC0
FF8000007FC0
FF8000003FC0
FF0000003FC0
FF0000003FC0
FF0000003FC0
FF0000003FC0
FF0000003FC0
FF0000003FC0
FF0000003FC0
FF0000003FC0
FF0000003FC0
FF0000003FC0
FF0000003FC0
FF0000003FC0
FF0000003FC0
FF0000003FC0
FF0000003FC0
FF0000003FC0
FF0000003FC0
FF0000003FC0
FF0000003FC0
FF0000003FC0
FF0000003FC0
FF0000003FC0
FF0000003FC0
FF0000003FC0
FF0000003FC0
FF0000003FC0
FF0000003FC0
FF0000003FC0
FF0000003FC0
FF0000003FC0
FF0000003FC0
FF0000003FC0
FF0000003FC0
FF0000003FC0
FF0000003FC0
FF8000003FC0
FF8000007FC0
FFC000007FC0
7FF00003FFC0
7FFFFFFFFF80
3FFFFFFFFF80
3FFFFFFFFF00
1FFFFFFFFE00
0FFFFFFFFC00
07FFFFFFF800
01FFFFFFF000
007FFFFF8000
ENDCHAR
STARTCHAR 0050
ENCODING 80
SWIDTH 573 0
DWIDTH 51 0
BBX 42 59 4 0
BITMAP
3FFFFFFF8000
7FFFFFFFF000
FFFFFFFFF800
FFFFFFFFFC00
FFFFFFFFFE00
FFFFFFFFFF00
FFFFFFFFFF80
FFFFFFFFFF80
FF000003FFC0
FF000000FFC0
FF0000007FC0
FF0000003FC0
FF0000003FC0
FF0000003FC0
FF0000003FC0
FF0000003FC0
FF0000003FC0
FF0000003FC0
FF0000003FC0
FF0000003FC0
FF0000003FC0
FF0000003FC0
FF0000003FC0
FF0000007FC0
FF000000FFC0
FF000003FFC0
FFFFFFFFFF80
FFFFFFFFFF80
FFFFFFFFFF00
FFFFFFFFFE00
FFFFFFFFFC00
FFFFFFFFF800
FFFFFFFFF000
FFFFFFFF8000
FF0000000000
FF0000000000
FF0000000000
FF0000000000
FF0000000000
FF0000000000
FF0000000000
FF0000000000
FF0000000000
FF0000000000
FF0000000000
FF0000000000
FF0000000000
FF0000000000
FF0000000000
FF0000000000
FF0000000000
FF0000000000
FF0000000000
FF0000000000
FF0000000000
FF0000000000
FF0000000000
7E0000000000
3C0000000000
ENDCHAR
STARTCHAR 0051
ENCODING 81
SWIDTH 573 0
DWIDTH 51 0
BBX 42 59 4 0
BITMAP
007FFFFF8000
01FFFFFFF000
07FFFFFFF800
0FFFFFFFFC00
1FFFFFFFFE00
3FFFFFFFFF00
3FFFFFFFFF80
7FFFFFFFFF80
7FF00003FFC0
FFC00000FFC0
FF8000007FC0
FF8000003FC0
FF0000003FC0
FF0000003FC0
FF0000003FC0
FF0000003FC0
FF0000003FC0
FF0000003FC0
FF0000003FC0
FF0000003FC0
FF0000003FC0
FF0000003FC0
FF0000003FC0
FF0000003FC0
FF0000003FC0
FF0000003FC0
FF0000003FC0
FF0000003FC0
FF0000003FC0
FF0000003FC0
FF0000003FC0
FF0000003FC0
FF0000003FC0
FF0000003FC0
FF001F007FC0
FF003F80FFC0
FF007FC1FFC0
FF007FE3FFC0
FF007FF7FFC0
FF007FFFFFC0
FF003FFFFFC0
FF001FFFFF80
FF000FFFFF00
FF0007FFFE00
FF0003FFF800
FF0001FFF000
FF0000FFF000
FF8001FFF800
FF8003FFFC00
FFC007FFFE00
7FF00FFFFF00
7FFFFFFFFF80
3FFFFFFBFFC0
3FFFFFF1FFC0
1FFFFFE0FFC0
0FFFFFC07FC0
07FFFF803FC0
01FFFF001F80
007FFE000F00
ENDCHAR
STARTCHAR 0052
ENCODING 82
SWIDTH 573 0
DWIDTH 51 0
BBX 42 59 4 0
BITMAP
3FFFFFFF8000
7FFFFFFFF000
FFFFFFFFF800
FFFFFFFFFC00
FFFFFFFFFE00
FFFFFFFFFF00
FFFFFFFFFF80
FFFFFFFFFF80
FF000003FFC0
FF000000FFC0
FF0000007FC0
FF0000003FC0
FF0000003FC0
FF0000003FC0
FF0000003FC0
FF0000003FC0
FF0000003FC0
FF0000003FC0
FF0000003FC0
FF0000003FC0
FF0000003FC0
FF0000003FC0
FF0000003FC0
FF0000007FC0
FF000000FFC0
FF000003FFC0
FFFFFFFFFF80
FFFFFFFFFF80
FFFFFFFFFF00
FFFFFFFFFE00
FFFFFFFFFE00
FFFFFFFFFF00
FFFFFFFFFF80
FFFFFFFFFF80
FF000000FFC0
FF0000007FC0
FF0000003FC0
FF0000003FC0
FF0000003FC0
FF0000003FC0
FF0000003FC0
FF0000003FC0
FF0000003FC0
FF0000003FC0
FF0000003FC0
FF0000003FC0
FF0000003FC0
FF0000003FC0
FF0000003FC0
FF0000003FC0
FF0000003FC0
FF0000003FC0
FF0000003FC0
FF0000003FC0
FF0000003FC0
FF0000003FC0
FF0000003FC0
7E0000001F80
3C0000000F00
ENDCHAR
STARTCHAR 0053
ENCODING 83
SWIDTH 573 0
DWIDTH 51 0
BBX 42 59 4 0
BITMAP
007FFFFF8000
03FFFFFFF000
07FFFFFFF800
0FFFFFFFFC00
1FFFFFFFFE00
3FFFFFFFFF00
7FFFFFFFFF80
7FFFFFFFFF80
7FF00003FFC0
FFC00000FFC0
FF8000007FC0
FF8000003FC0
FF0000003FC0
FF0000003FC0
FF0000003FC0
FF0000001F80
FF0000000F00
FF0000000000
FF0000000000
FF0000000000
FF0000000000
FF0000000000
FF8000000000
FF8000000000
FFC000000000
FFF000000000
7FFFFFFFC000
7FFFFFFFF000
3FFFFFFFFC00
3FFFFFFFFE00
1FFFFFFFFF00
0FFFFFFFFF00
03FFFFFFFF80
00FFFFFFFFC0
00000000FFC0
000000007FC0
000000003FC0
000000003FC0
000000003FC0
000000003FC0
000000003FC0
000000003FC0
1C0000003FC0
7E0000003FC0
7F0000003FC0
FF0000003FC0
FF0000003FC0
FF8000003FC0
FF8000007FC0
FFC000007FC0
7FF00003FFC0
7FFFFFFFFFC0
3FFFFFFFFF80
3FFFFFFFFF80
1FFFFFFFFF00
0FFFFFFFFE00
07FFFFFFFC00
01FFFFFFF000
007FFFFFC000
ENDCHAR
STARTCHAR 0054
ENCODING 84
SWIDTH 562 0
DWIDTH 50 0
BBX 42 59 4 0
BITMAP
3FFFFFFFFF00
7FFFFFFFFF80
FFFFFFFFFFC0
FFFFFFFFFFC0
FFFFFFFFFFC0
FFFFFFFFFFC0
7FFFFFFFFF80
3FFFFFFFFF00
00007F800000
00007F800000
00007F800000
00007F800000
00007F800000
00007F800000
00007F800000
00007F800000
00007F800000
00007F800000
00007F800000
00007F800000
00007F800000
00007F800000
00007F800000
00007F800000
00007F800000
00007F800000
00007F800000
00007F800000
00007F800000
00007F800000
00007F800000
00007F800000
00007F800000
00007F800000
00007F800000
00007F800000
00007F800000
00007F800000
00007F800000
00007F800000
00007F800000
00007F800000
00007F800000
00007F800000
00007F800000
00007F800000
00007F800000
00007F800000
00007F800000
00007F800000
00007F800000
00007F800000
00007F800000
00007F800000
00007F800000
00007F800000
00007F800000
00003F000000
00001E000000
ENDCHAR
STARTCHAR 0055
ENCODING 85
SWIDTH 573 0
DWIDTH 51 0
BBX 42 59 4 0
BITMAP
3C0000000F00
7E0000001F80
FF0000003FC0
FF0000003FC0
FF0000003FC0
FF0000003FC0
FF0000003FC0
FF0000003FC0
FF0000003FC0
FF0000003FC0
FF0000003FC0
FF0000003FC0
FF0000003FC0
FF0000003FC0
FF0000003FC0
FF0000003FC0
FF0000003FC0
FF0000003FC0
FF0000003FC0
FF0000003FC0
FF0000003FC0
FF0000003FC0
FF0000003FC0
FF0000003FC0
FF0000003FC0
FF0000003FC0
FF0000003FC0
FF0000003FC0
FF0000003FC0
FF0000003FC0
FF0000003FC0
FF0000003FC0
FF0000003FC0
FF0000003FC0
FF0000003FC0
FF0000003FC0
FF0000003FC0
FF0000003FC0
FF0000003FC0
FF0000003FC0
FF0000003FC0
FF0000003FC0
FF0000003FC0
FF0000003FC0
FF0000003FC0
FF0000003FC0
FF0000003FC0
FF8000003FC0
FF8000007FC0
FFC000007FC0
7FF00003FFC0
7FFFFFFFFF80
3FFFFFFFFF80
3FFFFFFFFF00
1FFFFFFFFE00
0FFFFFFFFC00
07FFFFFFF800
01FFFFFFF000
007FFFFF8000
ENDCHAR
STARTCHAR 0056
ENCODING 86
SWIDTH 573 0
DWIDTH 51 0
BBX 42 59 4 0
BITMAP
3C0000000F00
7E0000001F80
FF0000003FC0
FF0000003FC0
FF0000003FC0
FF0000003FC0
FF0000003FC0
FF0000003FC0
FF0000003FC0
FF0000003FC0
FF0000003FC0
FF0000003FC0
FF0000003FC0
FF0000003FC0
FF0000003FC0
FF0000003FC0
FF0000003FC0
FF0000003FC0
FF0000003FC0
FF0000003FC0
FF0000003FC0
FF0000003FC0
FF0000003FC0
FF0000003FC0
FF0000003FC0
FF0000003FC0
FF0000003FC0
FF0000003FC0
FF0000003FC0
FF0000003FC0
FF0000003FC0
FF0000003FC0
FF0000003FC0
FF0000003FC0
FF8000007FC0
FFC00000FFC0
FFE00001FFC0
FFF00003FFC0
FFF80007FFC0
FFFC000FFFC0
7FFE001FFFC0
3FFF003FFF80
1FFF807FFF00
0FFFC0FFFE00
07FFE1FFFC00
03FFF3FFF800
01FFFFFFF000
00FFFFFFE000
007FFFFFC000
003FFFFF8000
001FFFFF0000
000FFFFE0000
0007FFFC0000
0003FFF00000
0001FFE00000
0000FFC00000
00007F800000
00003F000000
00001E000000
ENDCHAR
STARTCHAR 0057
ENCODING 87
SWIDTH 573 0
DWIDTH 51 0
BBX 42 59 4 0
BITMAP
3C0000000F00
7E0000001F80
FF0000003FC0
FF0000003FC0
FF0000003FC0
FF0000003FC0
FF0000003FC0
FF0000003FC0
FF0000003FC0
FF0000003FC0
FF0000003FC0
FF0000003FC0
FF0000003FC0
FF0000003FC0
FF0000003FC0
FF0000003FC0
FF0000003FC0
FF0000003FC0
FF0000003FC0
FF0000003FC0
FF0000003FC0
FF0000003FC0
FF0000003FC0
FF0000003FC0
FF0000003FC0
FF000C003FC0
FF003F003FC0
FF003F803FC0
FF007F803FC0
FF007F803FC0
FF007F803FC0
FF007F803FC0
FF007F803FC0
FF007F803FC0
FF007F803FC0
FF007F803FC0
FF007F803FC0
FF007F803FC0
FF007F803FC0
FF007F803FC0
FF007F803FC0
FF007F803FC0
FF007F803FC0
FF007F803FC0
FF007F803FC0
FF007F803FC0
FF007F803FC0
FF807FC03FC0
FF80FFC07FC0
FFC0FFE07FC0
7FF7FFFBFFC0
7FFFFFFFFF80
3FFFFFFFFF80
3FFFFFFFFF00
1FFFFFFFFE00
0FFFFFFFFC00
07FFF3FFF800
01FFC0FFF000
007F003F8000
ENDCHAR
STARTCHAR 0058
ENCODING 88
SWIDTH 573 0
DWIDTH 51 0
BBX 42 59 4 0
BITMAP
3C0000000F00
7E0000001F80
FF0000003FC0
FF0000003FC0
FF0000003FC0
FF0000003FC0
FF0000003FC0
FF0000003FC0
FF0000003FC0
FF0000003FC0
FF0000003FC0
FF8000007FC0
FFC00000FFC0
FFE00001FFC0
FFF00003FFC0
7FF80007FF80
3FFC000FFF00
1FFE001FFE00
0FFF003FFC00
07FF807FF800
03FFC0FFF000
01FFE1FFE000
00FFF3FFC000
007FFFFF8000
003FFFFF0000
001FFFFE0000
000FFFFC0000
0007FFF80000
0003FFF00000
0001FFE00000
0003FFF00000
0007FFF80000
000FFFFC0000
001FFFFE0000
003FFFFF0000
007FFFFF8000
00FFF3FFC000
01FFE1FFE000
03FFC0FFF000
07FF807FF800
0FFF003FFC00
1FFE001FFE00
3FFC000FFF00
7FF80007FF80
FFF00003FFC0
FFE00001FFC0
FFC00000FFC0
FF8000007FC0
FF0000003FC0
FF0000003FC0
FF0000003FC0
FF0000003FC0
FF0000003FC0
FF0000003FC0
FF0000003FC0
FF0000003FC0
FF0000003FC0
7E0000001F80
3C0000000F00
ENDCHAR
STARTCHAR 0059
ENCODING 89
SWIDTH 573 0
DWIDTH 51 0
BBX 42 59 4 0
BITMAP
3C0000000F00
7E0000001F80
FF0000003FC0
FF0000003FC0
FF0000003FC0
FF0000003FC0
FF0000003FC0
FF0000003FC0
FF0000003FC0
FF0000003FC0
FF0000003FC0
FF8000007FC0
FFC00000FFC0
FFE00001FFC0
FFF00003FFC0
7FF80007FF80
3FFC000FFF00
1FFE001FFE00
0FFF003FFC00
07FF807FF800
03FFC0FFF000
01FFE1FFE000
00FFF3FFC000
007FFFFF8000
003FFFFF0000
001FFFFE0000
000FFFFC0000
0007FFF80000
0003FFF00000
0001FFE00000
0000FFC00000
00007F800000
00007F800000
00007F800000
00007F800000
00007F800000
00007F800000
00007F800000
00007F800000
00007F800000
00007F800000
00007F800000
00007F800000
00007F800000
00007F800000
00007F800000
00007F800000
00007F800000
00007F800000
00007F800000
00007F800000
00007F800000
00007F800000
00007F800000
00007F800000
00007F800000
00007F800000
00003F000000
00001E000000
ENDCHAR
STARTCHAR 005A
ENCODING 90
SWIDTH 573 0
DWIDTH 51 0
BBX 42 59 4 0
BITMAP
3FFFFFFFFF00
7FFFFFFFFF80
FFFFFFFFFFC0
FFFFFFFFFFC0
FFFFFFFFFFC0
FFFFFFFFFFC0
7FFFFFFFFFC0
3FFFFFFFFFC0
000000003FC0
000000003FC0
000000003FC0
000000007FC0
00000000FFC0
00000001FFC0
00000003FFC0
00000007FF80
0000000FFF00
0000001FFE00
0000003FFC00
0000007FF800
000000FFF000
000001FFE000
000003FFC000
000007FF8000
00000FFF0000
00001FFE0000
00003FFC0000
00007FF80000
0000FFF00000
0001FFE00000
0003FFC00000
0007FF800000
000FFF000000
001FFE000000
003FFC000000
007FF8000000
00FFF0000000
01FFE0000000
03FFC0000000
07FF80000000
0FFF00000000
1FFE00000000
3FFC00000000
7FF800000000
FFF000000000
FFE000000000
FFC000000000
FF8000000000
FF0000000000
FF0000000000
FF0000000000
FFFFFFFFFF80
FFFFFFFFFFC0
FFFFFFFFFFC0
FFFFFFFFFFC0
FFFFFFFFFFC0
FFFFFFFFFFC0
7FFFFFFFFF80
3FFFFFFFFF00
ENDCHAR
STARTCHAR 005B
ENCODING 91
SWIDTH 573 0
DWIDTH 51 0
BBX 17 59 21 0
BITMAP
3FFE00
7FFF00
FFFF80
FFFF80
FFFF80
FFFF80
FFFF00
FFFE00
FF0000
FF0000
FF0000
FF0000
FF0000
FF0000
FF0000
FF0000
FF0000
FF0000
FF0000
FF0000
FF0000
FF0000
FF0000
FF0000
FF0000
FF0000
FF0000
FF0000
FF0000
FF0000
FF0000
FF0000
FF0000
FF0000
FF0000
FF0000
FF0000
FF0000
FF0000
FF0000
FF0000
FF0000
FF0000
FF0000
FF0000
FF0000
FF0000
FF0000
FF0000
FF0000
FF0000
FFFE00
FFFF00
FFFF80
FFFF80
FFFF80
FFFF80
7FFF00
3FFE00
ENDCHAR
STARTCHAR 005C
ENCODING 92
SWIDTH 573 0
DWIDTH 51 0
BBX 42 59 4 0
BITMAP
3C0000000000
7E0000000000
FF0000000000
FF0000000000
FF0000000000
FF0000000000
FF0000000000
FF0000000000
FF0000000000
FF0000000000
FF0000000000
FF8000000000
FFC000000000
FFE000000000
FFF000000000
7FF800000000
3FFC00000000
1FFE00000000
0FFF00000000
07FF80000000
03FFC0000000
01FFE0000000
00FFF0000000
007FF8000000
003FFC000000
001FFE000000
000FFF000000
0007FF800000
0003FFC00000
0001FFE00000
0000FFF00000
00007FF80000
00003FFC0000
00001FFE0000
00000FFF0000
000007FF8000
000003FFC000
000001FFE000
000000FFF000
0000007FF800
0000001FFC00
0000000FFE00
00000007FF00
00000003FF80
00000001FFC0
00000000FFC0
000000007FC0
000000003FC0
000000003FC0
000000003FC0
000000003FC0
000000003FC0
000000003FC0
000000003FC0
000000003FC0
000000003FC0
000000003FC0
000000001F80
000000000F00
ENDCHAR
STARTCHAR 005D
ENCODING 93
SWIDTH 573 0
DWIDTH 51 0
BBX 17 59 12 0
BITMAP
1FFE00
3FFF00
7FFF80
7FFF80
7FFF80
7FFF80
7FFF80
3FFF80
007F80
007F80
007F80
007F80
007F80
007F80
007F80
007F80
007F80
007F80
007F80
007F80
007F80
007F80
007F80
007F80
007F80
007F80
007F80
007F80
007F80
007F80
007F80
007F80
007F80
007F80
007F80
007F80
007F80
007F80
007F80
007F80
007F80
007F80
007F80
007F80
007F80
007F80
007F80
007F80
007F80
007F80
007F80
3FFF80
7FFF80
7FFF80
FFFF80
7FFF80
7FFF80
3FFF00
1FFE00
ENDCHAR
STARTCHAR 005E
ENCODING 94
SWIDTH 562 0
DWIDTH 50 0
BBX 42 25 4 34
BITMAP
00001E000000
00003F000000
00007F800000
0000FFC00000
0001FFE00000
0003FFF00000
0007FFF80000
000FFFFC0000
001FFFFE0000
003FFFFF0000
007FF3FF8000
00FFE1FFC000
01FFC0FFE000
03FF807FF000
07FF003FF800
0FFE001FFC00
1FFC000FFE00
3FF80007FF00
7FF00003FF80
FFE00001FFC0
FFC00000FFC0
FF8000007FC0
FF0000003FC0
7E0000001F80
3C0000000F00
ENDCHAR
STARTCHAR 005F
ENCODING 95
SWIDTH 562 0
DWIDTH 50 0
BBX 42 8 4 -8
BITMAP
3FFFFFFFFF00
7FFFFFFFFF80
FFFFFFFFFFC0
FFFFFFFFFFC0
FFFFFFFFFFC0
FFFFFFFFFFC0
7FFFFFFFFF80
3FFFFFFFFF00
ENDCHAR
STARTCHAR 0060
ENCODING 96
SWIDTH 573 0
DWIDTH 51 0
BBX 17 17 21 42
BITMAP
3C0000
7E0000
FF0000
FF8000
FFC000
FFE000
7FF000
3FF800
1FFC00
0FFE00
07FF00
03FF80
01FF80
00FF80
007F80
003F00
001E00
ENDCHAR
STARTCHAR 0061
ENCODING 97
SWIDTH 573 0
DWIDTH 51 0
BBX 42 42 4 0
BITMAP
001FFFFF8000
007FFFFFF000
007FFFFFF800
007FFFFFFC00
00FFFFFFFE00
007FFFFFFF00
007FFFFFFF80
003FFFFFFF80
00000003FFC0
00000000FFC0
000000007FC0
000000003FC0
000000003FC0
000000003FC0
000000003FC0
000000003FC0
000000003FC0
007FFFFFFFC0
01FFFFFFFFC0
07FFFFFFFFC0
0FFFFFFFFFC0
1FFFFFFFFFC0
3FFFFFFFFFC0
3FFFFFFFFFC0
7FFFFFFFFFC0
7FF000003FC0
FFC000003FC0
FF8000003FC0
FF8000003FC0
FF0000003FC0
FF8000003FC0
FF8000003FC0
FFC000003FC0
7FF000003FC0
7FFFFFFFFFC0
3FFFFFFFFFC0
3FFFFFFFFFC0
1FFFFFFFFFC0
0FFFFFFFFFC0
07FFFFFFFFC0
01FFFFFFFF80
007FFFFFFF00
ENDCHAR
STARTCHAR 0062
ENCODING 98
SWIDTH 573 0
DWIDTH 51 0
BBX 42 59 4 0
BITMAP
3C0000000000
7E0000000000
FF0000000000
FF0000000000
FF0000000000
FF0000000000
FF0000000000
FF0000000000
FF0000000000
FF0000000000
FF0000000000
FF0000000000
FF0000000000
FF0000000000
FF0000000000
FF0000000000
FF0000000000
FFFFFFFF8000
FFFFFFFFF000
FFFFFFFFF800
FFFFFFFFFC00
FFFFFFFFFE00
FFFFFFFFFF00
FFFFFFFFFF80
FFFFFFFFFF80
FF000003FFC0
FF0000007FC0
FF0000007FC0
FF0000003FC0
FF0000003FC0
FF0000003FC0
FF0000003FC0
FF0000003FC0
FF0000003FC0
FF0000003FC0
FF0000003FC0
FF0000003FC0
FF0000003FC0
FF0000003FC0
FF0000003FC0
FF0000003FC0
FF0000003FC0
FF0000003FC0
FF0000003FC0
FF0000003FC0
FF0000003FC0
FF0000003FC0
FF0000003FC0
FF0000007FC0
FF0000007FC0
FF000003FFC0
FFFFFFFFFF80
FFFFFFFFFF80
FFFFFFFFFF00
FFFFFFFFFE00
FFFFFFFFFC00
FFFFFFFFF800
7FFFFFFFF000
3FFFFFFF8000
ENDCHAR
STARTCHAR 0063
ENCODING 99
SWIDTH 573 0
DWIDTH 51 0
BBX 42 42 4 0
BITMAP
007FFFFF8000
01FFFFFFF000
07FFFFFFF800
0FFFFFFFFC00
1FFFFFFFFE00
3FFFFFFFFF00
3FFFFFFFFF80
7FFFFFFFFF80
7FF00003FFC0
FFC000007FC0
FF8000007FC0
FF8000003FC0
FF0000003FC0
FF0000003FC0
FF0000003FC0
FF0000001F80
FF0000000700
FF0000000000
FF0000000000
FF0000000000
FF0000000000
FF0000000000
FF0000000000
FF0000000000
FF0000000000
FF0000000700
FF0000001F80
FF0000003FC0
FF0000003FC0
FF0000003FC0
FF8000003FC0
FF8000007FC0
FFC000007FC0
7FF00003FFC0
7FFFFFFFFF80
3FFFFFFFFF80
3FFFFFFFFF00
1FFFFFFFFE00
0FFFFFFFFC00
07FFFFFFF800
01FFFFFFF000
007FFFFF8000
ENDCHAR
STARTCHAR 0064
ENCODING 100
SWIDTH 573 0
DWIDTH 51 0
BBX 42 59 4 0
BITMAP
000000000F00
000000001F80
000000003FC0
000000003FC0
000000003FC0
000000003FC0
000000003FC0
000000003FC0
000000003FC0
000000003FC0
000000003FC0
000000003FC0
000000003FC0
000000003FC0
000000003FC0
000000003FC0
000000003FC0
007FFFFFFFC0
01FFFFFFFFC0
07FFFFFFFFC0
0FFFFFFFFFC0
1FFFFFFFFFC0
3FFFFFFFFFC0
3FFFFFFFFFC0
7FFFFFFFFFC0
7FF000003FC0
FFC000003FC0
FF8000003FC0
FF8000003FC0
FF0000003FC0
FF0000003FC0
FF0000003FC0
FF0000003FC0
FF0000003FC0
FF0000003FC0
FF0000003FC0
FF0000003FC0
FF0000003FC0
FF0000003FC0
FF0000003FC0
FF0000003FC0
FF0000003FC0
FF0000003FC0
FF0000003FC0
FF0000003FC0
FF0000003FC0
FF0000003FC0
FF8000003FC0
FF8000003FC0
FFC000003FC0
7FF000003FC0
7FFFFFFFFFC0
3FFFFFFFFFC0
3FFFFFFFFFC0
1FFFFFFFFFC0
0FFFFFFFFFC0
07FFFFFFFFC0
01FFFFFFFF80
007FFFFFFF00
ENDCHAR
STARTCHAR 0065
ENCODING 101
SWIDTH 573 0
DWIDTH 51 0
BBX 42 42 4 0
BITMAP
007FFFFF8000
01FFFFFFF000
07FFFFFFF800
0FFFFFFFFC00
1FFFFFFFFE00
3FFFFFFFFF00
3FFFFFFFFF80
7FFFFFFFFF80
7FF00003FFC0
FFC000007FC0
FF8000007FC0
FF8000003FC0
FF0000003FC0
FF0000003FC0
FF0000003FC0
FF0000003FC0
FF0000003FC0
FFFFFFFFFFC0
FFFFFFFFFFC0
FFFFFFFFFFC0
FFFFFFFFFFC0
FFFFFFFFFFC0
FFFFFFFFFFC0
FFFFFFFFFFC0
FFFFFFFFFF80
FF0000000000
FF0000000000
FF0000000000
FF0000000000
FF0000000000
FF8000000000
FF8000000000
FFC000000000
7FF000000000
7FFFFFFF0000
3FFFFFFF8000
3FFFFFFFC000
1FFFFFFFC000
0FFFFFFFC000
07FFFFFFC000
01FFFFFF8000
007FFFFF0000
ENDCHAR
STARTCHAR 0066
ENCODING 102
SWIDTH 573 0
DWIDTH 51 0
BBX 34 59 13 0
BITMAP
00003FFF00
0001FFFF80
0003FFFFC0
0007FFFFC0
000FFFFFC0
001FFFFFC0
003FFFFF80
003FFFFF00
007FF80000
007FE00000
007FC00000
007F800000
007F800000
007F800000
007F800000
007F800000
007F800000
3FFFFE0000
7FFFFF0000
FFFFFF8000
FFFFFF8000
FFFFFF8000
FFFFFF8000
7FFFFF0000
3FFFFE0000
007F800000
007F800000
007F800000
007F800000
007F800000
007F800000
007F800000
007F800000
007F800000
007F800000
007F800000
007F800000
007F800000
007F800000
007F800000
007F800000
007F800000
007F800000
007F800000
007F800000
007F800000
007F800000
007F800000
007F800000
007F800000
007F800000
007F800000
007F800000
007F800000
007F800000
007F800000
007F800000
003F000000
001E000000
ENDCHAR
STARTCHAR 0067
ENCODING 103
SWIDTH 573 0
DWIDTH 51 0
BBX 42 50 4 -8
BITMAP
007FFFFFFF00
01FFFFFFFF80
07FFFFFFFFC0
0FFFFFFFFFC0
1FFFFFFFFFC0
3FFFFFFFFFC0
3FFFFFFFFFC0
7FFFFFFFFFC0
7FF000003FC0
FFC000003FC0
FF8000003FC0
FF8000003FC0
FF0000003FC0
FF0000003FC0
FF0000003FC0
FF0000003FC0
FF0000003FC0
FF0000003FC0
FF0000003FC0
FF0000003FC0
FF0000003FC0
FF8000003FC0
FF8000003FC0
FF8000003FC0
7FE000003FC0
7FFFFFFFFFC0
7FFFFFFFFFC0
3FFFFFFFFFC0
1FFFFFFFFFC0
0FFFFFFFFFC0
07FFFFFFFFC0
03FFFFFFFFC0
00FFFFFFFFC0
000000003FC0
000000003FC0
000000003FC0
000000003FC0
000000003FC0
000000003FC0
000000007FC0
000000007FC0
00000003FFC0
003FFFFFFF80
007FFFFFFF80
007FFFFFFF00
00FFFFFFFE00
007FFFFFFC00
007FFFFFF800
007FFFFFF000
001FFFFF8000
ENDCHAR
STARTCHAR 0068
ENCODING 104
SWIDTH 573 0
DWIDTH 51 0
BBX 42 59 4 0
BITMAP
3C0000000000
7E0000000000
FF0000000000
FF0000000000
FF0000000000
FF0000000000
FF0000000000
FF0000000000
FF0000000000
FF0000000000
FF0000000000
FF0000000000
FF0000000000
FF0000000000
FF0000000000
FF0000000000
FF0000000000
FFFFFFFF8000
FFFFFFFFF000
FFFFFFFFF800
FFFFFFFFFC00
FFFFFFFFFE00
FFFFFFFFFF00
FFFFFFFFFF80
FFFFFFFFFF80
FF000003FFC0
FF0000007FC0
FF0000007FC0
FF0000003FC0
FF0000003FC0
FF0000003FC0
FF0000003FC0
FF0000003FC0
FF0000003FC0
FF0000003FC0
FF0000003FC0
FF0000003FC0
FF0000003FC0
FF0000003FC0
FF0000003FC0
FF0000003FC0
FF0000003FC0
FF0000003FC0
FF0000003FC0
FF0000003FC0
FF0000003FC0
FF0000003FC0
FF0000003FC0
FF0000003FC0
FF0000003FC0
FF0000003FC0
FF0000003FC0
FF0000003FC0
FF0000003FC0
FF0000003FC0
FF0000003FC0
FF0000003FC0
7E0000001F80
3C0000000F00
ENDCHAR
STARTCHAR 0069
ENCODING 105
SWIDTH 573 0
DWIDTH 51 0
BBX 25 59 13 0
BITMAP
001E0000
003F0000
007F8000
007F8000
007F8000
007F8000
007F0000
003E0000
00000000
00000000
00000000
00000000
00000000
00000000
00000000
00000000
00000000
3FFE0000
7FFF0000
FFFF8000
FFFF8000
FFFF8000
FFFF8000
7FFF8000
3FFF8000
007F8000
007F8000
007F8000
007F8000
007F8000
007F8000
007F8000
007F8000
007F8000
007F8000
007F8000
007F8000
007F8000
007F8000
007F8000
007F8000
007F8000
007F8000
007F8000
007F8000
007F8000
007F8000
007F8000
007F8000
007F8000
007F8000
3FFFFE00
7FFFFF00
FFFFFF80
FFFFFF80
FFFFFF80
FFFFFF80
7FFFFF00
3FFFFE00
ENDCHAR
STARTCHAR 006A
ENCODING 106
SWIDTH 573 0
DWIDTH 51 0
BBX 34 67 4 -8
BITMAP
0000000F00
0000001F80
0000003FC0
0000003FC0
0000003FC0
0000003FC0
0000003F80
0000001F00
0000000000
0000000000
0000000000
0000000000
0000000000
0000000000
0000000000
0000000000
0000000000
00001FFF00
00003FFF80
00007FFFC0
00007FFFC0
00007FFFC0
00007FFFC0
00003FFFC0
00001FFFC0
0000003FC0
0000003FC0
0000003FC0
0000003FC0
0000003FC0
0000003FC0
0000003FC0
0000003FC0
0000003FC0
0000003FC0
0000003FC0
0000003FC0
0000003FC0
0000003FC0
0000003FC0
0000003FC0
0000003FC0
0000003FC0
0000003FC0
0000003FC0
0000003FC0
0000003FC0
0000003FC0
0000003FC0
0000003FC0
1C00003FC0
7E00003FC0
7F00003FC0
FF00003FC0
FF00003FC0
FF80007FC0
FF80007FC0
FFC000FFC0
7FF003FF80
7FFFFFFF80
3FFFFFFF00
3FFFFFFF00
1FFFFFFE00
0FFFFFFC00
07FFFFF800
01FFFFE000
007FFF8000
ENDCHAR
STARTCHAR 006B
ENCODING 107
SWIDTH 573 0
DWIDTH 51 0
BBX 34 59 13 0
BITMAP
3C00000000
7E00000000
FF00000000
FF00000000
FF00000000
FF00000000
FF00000000
FF00000000
FF00000000
FF00000000
FF00000000
FF00000000
FF00000000
FF00000000
FF00000000
FF00000000
FF00000000
FF00000F00
FF00003F80
FF00007FC0
FF0000FFC0
FF0001FFC0
FF0003FFC0
FF0007FF80
FF000FFF00
FF001FFE00
FF003FFC00
FF007FF800
FF00FFF000
FF01FFE000
FF03FFC000
FF07FF8000
FF0FFF0000
FF1FFE0000
FF3FFC0000
FF7FF80000
FFFFF00000
FFFFE00000
FFFFE00000
FFFFF00000
FFFFF80000
FFFFFC0000
FFFFFE0000
FFFFFF0000
FFF7FF8000
FFE3FFC000
FFC1FFE000
FF80FFF000
FF007FF800
FF003FFC00
FF001FFE00
FF000FFF00
FF0007FF80
FF0003FFC0
FF0001FFC0
FF0000FFC0
FF00003FC0
7E00001F80
3C00000F00
ENDCHAR
STARTCHAR 006C
ENCODING 108
SWIDTH 573 0
DWIDTH 51 0
BBX 25 59 13 0
BITMAP
3FFE0000
7FFF0000
FFFF8000
FFFF8000
FFFF8000
FFFF8000
7FFF8000
3FFF8000
007F8000
007F8000
007F8000
007F8000
007F8000
007F8000
007F8000
007F8000
007F8000
007F8000
007F8000
007F8000
007F8000
007F8000
007F8000
007F8000
007F8000
007F8000
007F8000
007F8000
007F8000
007F8000
007F8000
007F8000
007F8000
007F8000
007F8000
007F8000
007F8000
007F8000
007F8000
007F8000
007F8000
007F8000
007F8000
007F8000
007F8000
007F8000
007F8000
007F8000
007F8000
007F8000
007F8000
3FFFFE00
7FFFFF00
FFFFFF80
FFFFFF80
FFFFFF80
FFFFFF80
7FFFFF00
3FFFFE00
ENDCHAR
STARTCHAR 006D
ENCODING 109
SWIDTH 573 0
DWIDTH 51 0
BBX 42 42 4 0
BITMAP
3FFF003F8000
7FFFE0FFF000
FFFFF1FFF800
FFFFFBFFFC00
FFFFFFFFFE00
FFFFFFFFFF00
FFFFFFFFFF80
FFFFFFFFFF80
FF07FFFBFFC0
FF00FFE07FC0
FF00FFC07FC0
FF007FC03FC0
FF007F803FC0
FF007F803FC0
FF007F803FC0
FF007F803FC0
FF007F803FC0
FF007F803FC0
FF007F803FC0
FF007F803FC0
FF007F803FC0
FF007F803FC0
FF007F803FC0
FF007F803FC0
FF007F803FC0
FF007F803FC0
FF007F803FC0
FF007F803FC0
FF007F803FC0
FF007F803FC0
FF007F803FC0
FF007F803FC0
FF007F803FC0
FF007F803FC0
FF007F803FC0
FF007F803FC0
FF007F803FC0
FF007F803FC0
FF007F803FC0
FF007F803FC0
7E003F001F80
3C001E000F00
ENDCHAR
STARTCHAR 006E
ENCODING 110
SWIDTH 573 0
DWIDTH 51 0
BBX 42 42 4 0
BITMAP
3FFFFFFF8000
7FFFFFFFF000
FFFFFFFFF800
FFFFFFFFFC00
FFFFFFFFFE00
FFFFFFFFFF00
FFFFFFFFFF80
FFFFFFFFFF80
FF000003FFC0
FF0000007FC0
FF0000007FC0
FF0000003FC0
FF0000003FC0
FF0000003FC0
FF0000003FC0
FF0000003FC0
FF0000003FC0
FF0000003FC0
FF0000003FC0
FF0000003FC0
FF0000003FC0
FF0000003FC0
FF0000003FC0
FF0000003FC0
FF0000003FC0
FF0000003FC0
FF0000003FC0
FF0000003FC0
FF0000003FC0
FF0000003FC0
FF0000003FC0
FF0000003FC0
FF0000003FC0
FF0000003FC0
FF0000003FC0
FF0000003FC0
FF0000003FC0
FF0000003FC0
FF0000003FC0
FF0000003FC0
7E0000001F80
3C0000000F00
ENDCHAR
STARTCHAR 006F
ENCODING 111
SWIDTH 573 0
DWIDTH 51 0
BBX 42 42 4 0
BITMAP
007FFFFF8000
01FFFFFFF000
07FFFFFFF800
0FFFFFFFFC00
1FFFFFFFFE00
3FFFFFFFFF00
3FFFFFFFFF80
7FFFFFFFFF80
7FF00003FFC0
FFC000007FC0
FF8000007FC0
FF8000003FC0
FF0000003FC0
FF0000003FC0
FF0000003FC0
FF0000003FC0
FF0000003FC0
FF0000003FC0
FF0000003FC0
FF0000003FC0
FF0000003FC0
FF0000003FC0
FF0000003FC0
FF0000003FC0
FF0000003FC0
FF0000003FC0
FF0000003FC0
FF0000003FC0
FF0000003FC0
FF0000003FC0
FF8000003FC0
FF8000007FC0
FFC000007FC0
7FF00003FFC0
7FFFFFFFFF80
3FFFFFFFFF80
3FFFFFFFFF00
1FFFFFFFFE00
0FFFFFFFFC00
07FFFFFFF800
01FFFFFFF000
007FFFFF8000
ENDCHAR
STARTCHAR 0070
ENCODING 112
SWIDTH 573 0
DWIDTH 51 0
BBX 42 50 4 -8
BITMAP
3FFFFFFF8000
7FFFFFFFF000
FFFFFFFFF800
FFFFFFFFFC00
FFFFFFFFFE00
FFFFFFFFFF00
FFFFFFFFFF80
FFFFFFFFFF80
FF000003FFC0
FF0000007FC0
FF0000007FC0
FF0000003FC0
FF0000003FC0
FF0000003FC0
FF0000003FC0
FF0000003FC0
FF0000003FC0
FF0000003FC0
FF0000003FC0
FF0000003FC0
FF0000003FC0
FF0000003FC0
FF0000003FC0
FF0000007FC0
FF000000FFC0
FFFFFFFFFFC0
FFFFFFFFFF80
FFFFFFFFFF00
FFFFFFFFFF00
FFFFFFFFFE00
FFFFFFFFFC00
FFFFFFFFF000
FFFFFFFFC000
FF0000000000
FF0000000000
FF0000000000
FF0000000000
FF0000000000
FF0000000000
FF0000000000
FF0000000000
FF0000000000
FF0000000000
FF0000000000
FF0000000000
FF0000000000
FF0000000000
FF0000000000
7E0000000000
3C0000000000
ENDCHAR
STARTCHAR 0071
ENCODING 113
SWIDTH 573 0
DWIDTH 51 0
BBX 42 50 4 -8
BITMAP
007FFFFFFF00
01FFFFFFFF80
07FFFFFFFFC0
0FFFFFFFFFC0
1FFFFFFFFFC0
3FFFFFFFFFC0
3FFFFFFFFFC0
7FFFFFFFFFC0
7FF000003FC0
FFC000003FC0
FF8000003FC0
FF8000003FC0
FF0000003FC0
FF0000003FC0
FF0000003FC0
FF0000003FC0
FF0000003FC0
FF0000003FC0
FF0000003FC0
FF0000003FC0
FF0000003FC0
FF8000003FC0
FF8000003FC0
FF8000003FC0
7FE000003FC0
7FFFFFFFFFC0
7FFFFFFFFFC0
3FFFFFFFFFC0
1FFFFFFFFFC0
0FFFFFFFFFC0
07FFFFFFFFC0
03FFFFFFFFC0
00FFFFFFFFC0
000000003FC0
000000003FC0
000000003FC0
000000003FC0
000000003FC0
000000003FC0
000000003FC0
000000003FC0
000000003FC0
000000003FC0
000000003FC0
000000003FC0
000000003FC0
000000003FC0
000000003FC0
000000001F80
000000000F00
ENDCHAR
STARTCHAR 0072
ENCODING 114
SWIDTH 573 0
DWIDTH 51 0
BBX 34 42 13 0
BITMAP
3FFFFF8000
7FFFFFE000
FFFFFFF800
FFFFFFFC00
FFFFFFFE00
FFFFFFFF00
FFFFFFFF00
FFFFFFFF80
FF0003FF80
FF0000FFC0
FF00007FC0
FF00007FC0
FF00003FC0
FF00003FC0
FF00003FC0
FF00001F80
FF00000E00
FF00000000
FF00000000
FF00000000
FF00000000
FF00000000
FF00000000
FF00000000
FF00000000
FF00000000
FF00000000
FF00000000
FF00000000
FF00000000
FF00000000
FF00000000
FF00000000
FF00000000
FF00000000
FF00000000
FF00000000
FF00000000
FF00000000
FF00000000
7E00000000
3C00000000
ENDCHAR
STARTCHAR 0073
ENCODING 115
SWIDTH 573 0
DWIDTH 51 0
BBX 42 42 4 0
BITMAP
007FFFFFFF00
01FFFFFFFF80
07FFFFFFFFC0
0FFFFFFFFFC0
1FFFFFFFFFC0
3FFFFFFFFFC0
3FFFFFFFFFC0
7FFFFFFFFF80
7FF000000000
FFC000000000
FF8000000000
FF8000000000
FF0000000000
FF8000000000
FF8000000000
FFC000000000
7FE000000000
7FFFFFFF8000
7FFFFFFFF000
3FFFFFFFF800
1FFFFFFFFC00
0FFFFFFFFE00
07FFFFFFFF00
03FFFFFFFF80
00FFFFFFFF80
00000003FFC0
000000007FC0
000000007FC0
000000003FC0
000000003FC0
000000003FC0
000000007FC0
000000007FC0
00000003FFC0
3FFFFFFFFF80
7FFFFFFFFF80
FFFFFFFFFF00
FFFFFFFFFE00
FFFFFFFFFC00
FFFFFFFFF800
7FFFFFFFF000
3FFFFFFF8000
ENDCHAR
STARTCHAR 0074
ENCODING 116
SWIDTH 573 0
DWIDTH 51 0
BBX 34 59 13 0
BITMAP
001E000000
003F000000
007F800000
007F800000
007F800000
007F800000
007F800000
007F800000
007F800000
007F800000
007F800000
007F800000
007F800000
007F800000
007F800000
007F800000
007F800000
3FFFFFFF00
7FFFFFFF80
FFFFFFFFC0
FFFFFFFFC0
FFFFFFFFC0
FFFFFFFFC0
7FFFFFFF80
3FFFFFFF00
007F800000
007F800000
007F800000
007F800000
007F800000
007F800000
007F800000
007F800000
007F800000
007F800000
007F800000
007F800000
007F800000
007F800000
007F800000
007F800000
007F800000
007F800000
007F800000
007F800000
007F800000
007F800000
007F800000
007FC00000
007FC00000
007FF80000
003FFFFF00
003FFFFF80
001FFFFFC0
000FFFFFC0
0007FFFFC0
0003FFFFC0
0001FFFF80
00003FFF00
ENDCHAR
STARTCHAR 0075
ENCODING 117
SWIDTH 573 0
DWIDTH 51 0
BBX 42 42 4 0
BITMAP
3C0000000F00
7E0000001F80
FF0000003FC0
FF0000003FC0
FF0000003FC0
FF0000003FC0
FF0000003FC0
FF0000003FC0
FF0000003FC0
FF0000003FC0
FF0000003FC0
FF0000003FC0
FF0000003FC0
FF0000003FC0
FF0000003FC0
FF0000003FC0
FF0000003FC0
FF0000003FC0
FF0000003FC0
FF0000003FC0
FF0000003FC0
FF0000003FC0
FF0000003FC0
FF0000003FC0
FF0000003FC0
FF0000003FC0
FF0000003FC0
FF0000003FC0
FF0000003FC0
FF0000003FC0
FF8000003FC0
FF8000003FC0
FFC000003FC0
7FF000003FC0
7FFFFFFFFFC0
3FFFFFFFFFC0
3FFFFFFFFFC0
1FFFFFFFFFC0
0FFFFFFFFFC0
07FFFFFFFFC0
01FFFFFFFF80
007FFFFFFF00
ENDCHAR
STARTCHAR 0076
ENCODING 118
SWIDTH 573 0
DWIDTH 51 0
BBX 42 42 4 0
BITMAP
3C0000000F00
7E0000001F80
FF0000003FC0
FF0000003FC0
FF0000003FC0
FF0000003FC0
FF0000003FC0
FF0000003FC0
FF0000003FC0
FF0000003FC0
FF0000003FC0
FF0000003FC0
FF0000003FC0
FF0000003FC0
FF0000003FC0
FF0000003FC0
FF0000003FC0
FF8000007FC0
FFC00000FFC0
FFE00001FFC0
FFF00003FFC0
FFF80007FFC0
FFFC000FFFC0
7FFE001FFFC0
3FFF003FFF80
1FFF807FFF00
0FFFC0FFFE00
07FFE1FFFC00
03FFF3FFF800
01FFFFFFF000
00FFFFFFE000
007FFFFFC000
003FFFFF8000
001FFFFF0000
000FFFFE0000
0007FFFC0000
0003FFF80000
0001FFE00000
0000FFC00000
00007F800000
00003F000000
00001E000000
ENDCHAR
STARTCHAR 0077
ENCODING 119
SWIDTH 573 0
DWIDTH 51 0
BBX 42 42 4 0
BITMAP
3C0000000F00
7E0000001F80
FF0000003FC0
FF0000003FC0
FF0000003FC0
FF0000003FC0
FF0000003FC0
FF0000003FC0
FF000C003FC0
FF003F003FC0
FF003F803FC0
FF007F803FC0
FF007F803FC0
FF007F803FC0
FF007F803FC0
FF007F803FC0
FF007F803FC0
FF007F803FC0
FF007F803FC0
FF007F803FC0
FF007F803FC0
FF007F803FC0
FF007F803FC0
FF007F803FC0
FF007F803FC0
FF007F803FC0
FF007F803FC0
FF007F803FC0
FF007F803FC0
FF007F803FC0
FF807FC03FC0
FF80FFC07FC0
FFC0FFE07FC0
7FF7FFFBFFC0
7FFFFFFFFF80
3FFFFFFFFF80
3FFFFFFFFF00
1FFFFFFFFE00
0FFFFFFFFC00
07FFF3FFF800
01FFC0FFF000
007F003F8000
ENDCHAR
STARTCHAR 0078
ENCODING 120
SWIDTH 562 0
DWIDTH 50 0
BBX 42 42 4 0
BITMAP
3C0000000F00
7E0000001F80
FF0000003FC0
FF8000007FC0
FFC00000FFC0
FFE00001FFC0
7FF00003FF80
3FF80007FF00
1FFC000FFE00
0FFE001FFC00
07FF807FF800
03FFC0FFF000
01FFE1FFE000
00FFF3FFC000
007FFFFF8000
007FFFFF0000
003FFFFE0000
001FFFFC0000
000FFFF80000
0007FFF00000
0003FFE00000
0003FFE00000
0007FFF00000
000FFFF80000
001FFFFC0000
003FFFFE0000
003FFFFF0000
007FF3FF8000
00FFE1FFC000
01FFC0FFE000
03FF807FF000
07FF003FF800
0FFE001FFC00
1FFC000FFE00
3FF80007FF00
7FF00003FF80
FFE00001FFC0
FFC00000FFC0
FF8000007FC0
FF0000003FC0
7E0000001F80
3C0000000F00
ENDCHAR
STARTCHAR 0079
ENCODING 121
SWIDTH 573 0
DWIDTH 51 0
BBX 42 50 4 -8
BITMAP
3C0000000F00
7E0000001F80
FF0000003FC0
FF0000003FC0
FF0000003FC0
FF0000003FC0
FF0000003FC0
FF0000003FC0
FF0000003FC0
FF0000003FC0
FF0000003FC0
FF0000003FC0
FF0000003FC0
FF0000003FC0
FF0000003FC0
FF0000003FC0
FF0000003FC0
FF0000003FC0
FF0000003FC0
FF0000003FC0
FF0000003FC0
FF8000003FC0
FF8000003FC0
FFC000003FC0
7FE000003FC0
7FFFFFFFFFC0
7FFFFFFFFFC0
3FFFFFFFFFC0
1FFFFFFFFFC0
0FFFFFFFFFC0
07FFFFFFFFC0
03FFFFFFFFC0
00FFFFFFFFC0
000000003FC0
000000003FC0
000000003FC0
000000003FC0
000000003FC0
000000003FC0
000000007FC0
000000007FC0
00000003FFC0
003FFFFFFF80
007FFFFFFF80
007FFFFFFF00
00FFFFFFFE00
007FFFFFFC00
007FFFFFF800
007FFFFFF000
001FFFFF8000
ENDCHAR
STARTCHAR 007A
ENCODING 122
SWIDTH 562 0
DWIDTH 50 0
BBX 42 42 4 0
BITMAP
3FFFFFFFFF00
7FFFFFFFFF80
FFFFFFFFFFC0
FFFFFFFFFFC0
FFFFFFFFFFC0
FFFFFFFFFFC0
7FFFFFFFFF80
3FFFFFFFFF00
0000001FFE00
0000003FFC00
0000007FF800
000000FFF000
000001FFE000
000003FFC000
000007FF8000
00000FFF0000
00001FFE0000
00003FFC0000
00007FF80000
00007FF00000
0000FFE00000
0001FFC00000
0003FF800000
0007FF000000
000FFE000000
001FFC000000
003FF8000000
007FF0000000
00FFE0000000
01FFC0000000
03FF80000000
07FF00000000
0FFE00000000
1FFC00000000
3FFFFFFFFF00
7FFFFFFFFF80
FFFFFFFFFFC0
FFFFFFFFFFC0
FFFFFFFFFFC0
FFFFFFFFFFC0
7FFFFFFFFF80
3FFFFFFFFF00
ENDCHAR
STARTCHAR 007B
ENCODING 123
SWIDTH 573 0
DWIDTH 51 0
BBX 26 59 12 0
BITMAP
00003F00
0000FF80
0003FFC0
0007FFC0
000FFFC0
001FFFC0
001FFF80
003FFF00
003FF800
007FE000
007FC000
007FC000
007F8000
007F8000
007F8000
007F8000
007F8000
007F8000
007F8000
007F8000
007F8000
007F8000
007F8000
00FF8000
01FF8000
03FF8000
3FFF0000
7FFF0000
7FFE0000
FFFC0000
7FFC0000
7FFE0000
3FFF0000
1FFF0000
01FF8000
00FF8000
007F8000
007F8000
007F8000
007F8000
007F8000
007F8000
007F8000
007F8000
007F8000
007F8000
007F8000
007FC000
007FC000
007FE000
003FF800
003FFF00
001FFF80
001FFFC0
000FFFC0
0007FFC0
0003FFC0
0000FF80
00003F00
ENDCHAR
STARTCHAR 007C
ENCODING 124
SWIDTH 573 0
DWIDTH 51 0
BBX 8 59 21 0
BITMAP
3C
7E
FF
FF
FF
FF
FF
FF
FF
FF
FF
FF
FF
FF
FF
FF
FF
FF
FF
FF
FF
FF
FF
FF
FF
FF
FF
FF
FF
FF
FF
FF
FF
FF
FF
FF
FF
FF
FF
FF
FF
FF
FF
FF
FF
FF
FF
FF
FF
FF
FF
FF
FF
FF
FF
FF
FF
7E
3C
ENDCHAR
STARTCHAR 007D
ENCODING 125
SWIDTH 573 0
DWIDTH 51 0
BBX 26 59 12 0
BITMAP
1F000000
3FE00000
7FF00000
7FF80000
7FFC0000
7FFE0000
7FFF0000
3FFF0000
07FF8000
01FF8000
00FF8000
007F8000
007F8000
007F8000
007F8000
007F8000
007F8000
007F8000
007F8000
007F8000
007F8000
007F8000
007FC000
007FC000
007FE000
003FF800
003FFF00
001FFF80
001FFFC0
000FFFC0
000FFFC0
001FFFC0
001FFF80
003FFF00
003FF000
007FE000
007FC000
007FC000
007F8000
007F8000
007F8000
007F8000
007F8000
007F8000
007F8000
007F8000
007F8000
007F8000
00FF8000
00FF8000
07FF8000
3FFF0000
7FFF0000
7FFE0000
FFFC0000
7FF80000
7FF00000
3FE00000
1F000000
ENDCHAR
STARTCHAR 007E
ENCODING 126
SWIDTH 573 0
DWIDTH 51 0
BBX 42 25 4 34
BITMAP
007F00000000
01FFE0000000
07FFF0000000
0FFFF8000000
1FFFFC000000
3FFFFE000000
3FFFFF000000
7FFFFF000000
7FF7FF800200
FFC0FF801F80
FF80FF801FC0
FF807F803FC0
FF007F803FC0
FF007FC03FC0
7F007FC07FC0
7E007FE07FC0
08003FFBFFC0
00003FFFFF80
00001FFFFF80
00001FFFFF00
00000FFFFE00
000007FFFC00
000003FFF800
000000FFF000
0000003F8000
ENDCHAR
STARTCHAR 007F
ENCODING 127
SWIDTH 562 0
DWIDTH 50 0
BBX 42 59 4 0
BITMAP
3FFFFFFFFF00
7FFFFFFFFF80
FFFFFFFFFFC0
FFFFFFFFFFC0
FFFFFFFFFFC0
FFFFFFFFFFC0
FFFFFFFFFFC0
FFFFFFFFFFC0
FFFFFFFFFFC0
FFFFFFFFFFC0
FFFFFFFFFFC0
FFFFFFFFFFC0
FFFFFFFFFFC0
FFFFFFFFFFC0
FFFFFFFFFFC0
FFFFFFFFFFC0
FFFFFFFFFFC0
FFFFFFFFFFC0
FFFFFFFFFFC0
FFFFFFFFFFC0
FFFFFFFFFFC0
FFFFFFFFFFC0
FFFFFFFFFFC0
FFFFFFFFFFC0
FFFFFFFFFFC0
FFFFFFFFFFC0
FFFFFFFFFFC0
FFFFFFFFFFC0
FFFFFFFFFFC0
FFFFFFFFFFC0
FFFFFFFFFFC0
FFFFFFFFFFC0
FFFFFFFFFFC0
FFFFFFFFFFC0
FFFFFFFFFFC0
FFFFFFFFFFC0
FFFFFFFFFFC0
FFFFFFFFFFC0
FFFFFFFFFFC0
FFFFFFFFFFC0
FFFFFFFFFFC0
FFFFFFFFFFC0
FFFFFFFFFFC0
FFFFFFFFFFC0
FFFFFFFFFFC0
FFFFFFFFFFC0
FFFFFFFFFFC0
FFFFFFFFFFC0
FFFFFFFFFFC0
FFFFFFFFFFC0
FFFFFFFFFFC0
FFFFFFFFFFC0
FFFFFFFFFFC0
FFFFFFFFFFC0
FFFFFFFFFFC0
FFFFFFFFFFC0
FFFFFFFFFFC0
7FFFFFFFFF80
3FFFFFFFFF00
ENDCHAR
ENDFONT
